<svg width="168" height="38" viewBox="0 0 168 38" fill="none" xmlns="http://www.w3.org/2000/svg">
<g clip-path="url(#clip0_5815_4781)">
<path d="M46.6322 18.2558C49.1424 18.2558 50.8274 19.3494 51.8591 20.708V1.35596C51.8591 0.99145 51.412 0.759491 51.1025 0.991451L26.3098 18.4547H26.9632C29.5422 18.4547 30.8488 20.0453 30.8488 21.7683C30.8488 23.1269 30.1268 24.121 29.1295 24.5518C28.9576 24.6182 28.9576 24.8501 29.1295 24.9164C30.2642 25.3803 31.0895 26.5401 31.0895 27.9318C31.0895 29.9201 29.7485 31.4775 27.1694 31.4775H20.1202C19.9827 31.4775 19.8451 31.3781 19.8451 31.2123V22.9945L1.37959 36.0172C1.07011 36.2824 1.20765 36.7463 1.62029 36.7463H51.412C51.6528 36.7463 51.8247 36.5806 51.8247 36.3486V29.7544C50.4836 30.9473 48.7299 31.7095 46.5978 31.7095C42.6091 31.7095 39.3767 29.0585 39.3767 24.9826C39.4111 20.8736 42.6778 18.2558 46.6322 18.2558ZM36.7633 31.2456C36.7633 31.3781 36.6602 31.4775 36.5226 31.4775H34.15C34.0124 31.4775 33.9092 31.3781 33.9092 31.2456V18.6866C33.9092 18.554 34.0124 18.4547 34.15 18.4547H36.5226C36.6602 18.4547 36.7633 18.554 36.7633 18.6866V31.2456Z" fill="white"/>
<path d="M23.0095 23.624H26.3449C27.3078 23.624 27.9267 23.0938 27.9267 22.2654C27.9267 21.4701 27.3078 20.9067 26.3449 20.9067H22.8719C22.8032 20.9067 22.7344 20.9731 22.7344 21.0393V23.392C22.7344 23.5246 22.8719 23.624 23.0095 23.624Z" fill="white"/>
<path d="M23.0095 29.0585H26.4824C27.5485 29.0585 28.2018 28.4951 28.2018 27.5673C28.2018 26.7389 27.5829 26.0762 26.4824 26.0762H23.0095C22.8719 26.0762 22.7344 26.1755 22.7344 26.3412V28.7934C22.7344 28.9259 22.8719 29.0585 23.0095 29.0585Z" fill="white"/>
<path d="M49.6837 22.1996C49.0305 21.3712 47.9301 20.7085 46.6233 20.7085C44.1475 20.7085 42.3594 22.531 42.3594 24.9831C42.3594 27.4353 44.1475 29.2578 46.6233 29.2578C47.7581 29.2578 48.824 28.7939 49.4086 28.33C49.443 28.2969 49.4774 28.2306 49.4774 28.1642V26.9051C49.4774 26.8056 49.3743 26.7063 49.2711 26.7063H46.2108C46.0387 26.7063 45.9357 26.5737 45.9357 26.4412V24.5855C45.9357 24.4198 46.0731 24.3205 46.2108 24.3205H51.8846V21.3712L50.062 22.3322C49.9245 22.3653 49.7525 22.2991 49.6837 22.1996Z" fill="white"/>
<path d="M53.9844 24.9832C53.9844 20.9736 56.9761 18.2563 60.8273 18.2563C63.3375 18.2563 64.9537 19.4824 65.9165 20.9736C65.9854 21.073 65.951 21.2387 65.8133 21.2718L64.266 22.0672C64.1628 22.1334 64.0253 22.1003 63.9909 22.0008C63.3375 21.0067 62.134 20.2777 60.8273 20.2777C58.2483 20.2777 56.3227 22.2329 56.3227 24.9832C56.3227 27.7004 58.2483 29.6886 60.8273 29.6886C62.134 29.6886 63.3375 28.9596 63.9909 27.9656C64.0597 27.8661 64.1628 27.833 64.266 27.8992L65.8133 28.6614C65.951 28.7277 65.9854 28.8601 65.9165 28.9928C64.9194 30.4839 63.3031 31.7431 60.8273 31.7431C56.9761 31.71 53.9844 28.9596 53.9844 24.9832Z" fill="white"/>
<path d="M67.2578 24.9821C67.2578 21.7347 69.1834 19.2163 72.0719 18.4873C76.9893 17.228 81.4939 21.6684 80.4278 26.6058C79.7746 29.6545 77.2644 31.7421 73.9288 31.7421C70.0087 31.709 67.2578 28.8591 67.2578 24.9821ZM78.2271 24.9821C78.2271 22.2981 76.5078 20.2767 73.8945 20.2767C71.2467 20.2767 69.5617 22.2981 69.5617 24.9821C69.5617 27.6662 71.2467 29.6876 73.8945 29.6876C76.5422 29.6876 78.2271 27.6331 78.2271 24.9821Z" fill="white"/>
<path d="M94.5899 31.3126V21.4047L90.4979 31.3789C90.4979 31.412 90.4291 31.4451 90.3948 31.4451H89.5351C89.5007 31.4451 89.4319 31.412 89.4319 31.3789L85.3056 21.4047V31.3126C85.3056 31.412 85.2368 31.4782 85.1336 31.4782H83.0704C82.9672 31.4782 82.8984 31.412 82.8984 31.3126V18.588C82.8984 18.4886 82.9672 18.4224 83.0704 18.4224H86.0276C86.1652 18.4224 86.2683 18.4886 86.3371 18.6211L89.9477 27.5681L93.5238 18.6211C93.5582 18.4886 93.6959 18.4224 93.8333 18.4224H96.7906C96.8937 18.4224 96.9625 18.4886 96.9625 18.588V31.3126C96.9625 31.412 96.8937 31.4782 96.7906 31.4782H94.7274C94.693 31.4782 94.5899 31.412 94.5899 31.3126Z" fill="white"/>
<path d="M117.98 31.2474V18.6885C117.98 18.556 118.084 18.4565 118.221 18.4565H126.99C127.127 18.4565 127.23 18.556 127.23 18.6885V20.2128C127.23 20.3453 127.127 20.4448 126.99 20.4448H120.594C120.456 20.4448 120.353 20.5442 120.353 20.6768V23.5596C120.353 23.6922 120.456 23.7916 120.594 23.7916H126.852C126.99 23.7916 127.093 23.891 127.093 24.0236V25.5479C127.093 25.6805 126.99 25.7798 126.852 25.7798H120.594C120.456 25.7798 120.353 25.8793 120.353 26.0118V29.1598C120.353 29.2924 120.456 29.3918 120.594 29.3918H126.99C127.127 29.3918 127.23 29.4911 127.23 29.6237V31.1481C127.23 31.2806 127.127 31.38 126.99 31.38H118.221C118.084 31.4794 117.98 31.38 117.98 31.2474Z" fill="white"/>
<path d="M138.224 31.3468L135.37 26.7077C135.335 26.6414 135.232 26.6083 135.164 26.6083H133.169C133.031 26.6083 132.928 26.7077 132.928 26.8403V31.2474C132.928 31.38 132.825 31.4794 132.687 31.4794H130.831C130.693 31.4794 130.59 31.38 130.59 31.2474V18.6885C130.59 18.556 130.693 18.4565 130.831 18.4565H136.538C139.221 18.4565 140.975 20.1134 140.975 22.5324C140.975 24.6863 139.6 25.9124 138.086 26.2769C137.914 26.31 137.845 26.4757 137.914 26.6414C138.465 27.503 140.183 30.1539 140.837 31.1148C140.94 31.2806 140.837 31.4794 140.631 31.4794H138.465C138.362 31.4794 138.292 31.4463 138.224 31.3468ZM138.533 22.4993C138.533 21.24 137.57 20.4448 136.229 20.4448H133.203C133.066 20.4448 132.963 20.5442 132.963 20.6768V24.355C132.963 24.4876 133.066 24.5869 133.203 24.5869H136.229C137.57 24.5869 138.533 23.7917 138.533 22.4993Z" fill="white"/>
<path d="M157.012 31.2474V18.6885C157.012 18.556 157.115 18.4565 157.253 18.4565H166.056C166.192 18.4565 166.295 18.556 166.295 18.6885V20.246C166.295 20.3786 166.192 20.4779 166.056 20.4779H159.625C159.487 20.4779 159.384 20.5773 159.384 20.7099V23.626C159.384 23.7584 159.487 23.8579 159.625 23.8579H165.883C166.021 23.8579 166.124 23.9573 166.124 24.0899V25.6474C166.124 25.7798 166.021 25.8793 165.883 25.8793H159.625C159.487 25.8793 159.384 25.9787 159.384 26.1113V29.2924C159.384 29.4249 159.487 29.5244 159.625 29.5244H166.056C166.192 29.5244 166.295 29.6237 166.295 29.7563V31.3137C166.295 31.4463 166.192 31.5456 166.056 31.5456H157.253C157.115 31.4794 157.012 31.38 157.012 31.2474Z" fill="white"/>
<path d="M142.703 24.9173C142.703 20.9077 145.695 18.1904 149.546 18.1904C152.056 18.1904 153.672 19.4166 154.636 20.9077C154.704 21.0072 154.669 21.1728 154.531 21.2059L152.985 22.0012C152.881 22.0675 152.744 22.0343 152.709 21.935C152.056 20.9408 150.853 20.2118 149.546 20.2118C146.967 20.2118 145.042 22.167 145.042 24.9173C145.042 27.6344 146.967 29.6227 149.546 29.6227C150.853 29.6227 152.056 28.8937 152.709 27.8996C152.778 27.8002 152.881 27.767 152.985 27.8333L154.531 28.5955C154.669 28.6618 154.704 28.7942 154.636 28.9268C153.638 30.4181 152.021 31.6772 149.546 31.6772C145.695 31.6441 142.703 28.9268 142.703 24.9173Z" fill="white"/>
<path d="M112.129 31.3126V21.4047L108.037 31.3789C108.037 31.412 107.968 31.4451 107.934 31.4451H107.074C107.04 31.4451 106.971 31.412 106.971 31.3789L102.845 21.4047V31.3126C102.845 31.412 102.776 31.4782 102.673 31.4782H100.609C100.506 31.4782 100.438 31.412 100.438 31.3126V18.588C100.438 18.4886 100.506 18.4224 100.609 18.4224H103.567C103.704 18.4224 103.807 18.4886 103.876 18.6211L107.487 27.5681L111.063 18.6211C111.097 18.4886 111.235 18.4224 111.372 18.4224H114.33C114.433 18.4224 114.502 18.4886 114.502 18.588V31.3126C114.502 31.412 114.433 31.4782 114.33 31.4782H112.266C112.198 31.4782 112.129 31.412 112.129 31.3126Z" fill="white"/>
</g>
<defs>
<clipPath id="clip0_5815_4781">
<rect width="167.329" height="36.5082" fill="white" transform="translate(0.125 0.611328)"/>
</clipPath>
</defs>
</svg>
