<?xml version="1.0" encoding="utf-8"?>
<svg width="54" height="35" viewBox="0 0 54 35" fill="none" xmlns="http://www.w3.org/2000/svg">
<path d="M16.5627 27.7192L16.4678 27.8106C14.9386 29.3608 13.1686 30.1825 11.3448 30.1825C7.53792 30.1825 4.77449 27.3408 4.77449 23.4198C4.77449 19.506 7.53792 16.6602 11.3448 16.6602C13.1686 16.6602 14.9386 17.4852 16.4678 19.0396L16.5627 19.1337L19.011 16.188L18.9455 16.1081C16.9094 13.714 14.4664 12.5485 11.463 12.5485C8.44922 12.5485 5.69421 13.5577 3.70869 15.3778C1.55136 17.3488 0.412354 20.1284 0.412354 23.4198C0.412354 26.7096 1.55136 29.4961 3.70869 31.4676C5.69421 33.296 8.44922 34.2997 11.463 34.2997C14.4664 34.2997 16.9094 33.1349 18.9455 30.7398L19.011 30.6655L16.5627 27.7192Z" fill="white"/>
<path d="M21.4853 33.8984H25.8104V12.8895H21.4853V33.8984Z" fill="white"/>
<path d="M42.752 29.3305C41.5981 30.0296 40.5242 30.3811 39.5599 30.3811C38.1625 30.3811 37.531 29.6473 37.531 28.0126V16.8652H41.9359V12.909H37.531V6.37195L33.2918 8.62939V12.909H29.6346V16.8652H33.2918V28.7237C33.2918 31.9546 35.2151 34.1617 38.0862 34.2191C40.0357 34.2571 41.211 33.6793 41.9248 33.2568L41.9666 33.2259L43.0079 29.175L42.752 29.3305L42.752 29.3305Z" fill="white"/>
<path d="M46.3339 33.8984H50.6619V12.8895H46.3339V33.8984Z" fill="white"/>
<path fill-rule="evenodd" clip-rule="evenodd" d="M53.2524 9.16181C49.2931 3.58162 42.718 0.25235 36.0283 0.25235C29.3413 0.25235 22.7648 3.58162 18.8121 9.16181L18.6094 9.44893H23.5946L23.6498 9.38937C27.0429 5.90472 31.4722 4.0619 36.0283 4.0619C40.5848 4.0619 45.0133 5.90472 48.4129 9.38937L48.4681 9.44893H53.4518L53.2524 9.16181Z" fill="white"/>
</svg>
