<svg width="127" height="45" viewBox="0 0 127 45" fill="none" xmlns="http://www.w3.org/2000/svg">
<mask id="mask0_5815_4733" style="mask-type:luminance" maskUnits="userSpaceOnUse" x="1" y="1" width="126" height="43">
<path d="M126.903 1.01172H1.59375V43.5524H126.903V1.01172Z" fill="white"/>
</mask>
<g mask="url(#mask0_5815_4733)">
<path d="M54.9227 22.8273C54.9227 28.7322 50.3204 33.0833 44.6723 33.0833C39.0242 33.0833 34.4219 28.7322 34.4219 22.8273C34.4219 16.8808 39.0242 12.5713 44.6723 12.5713C50.3204 12.5713 54.9227 16.8808 54.9227 22.8273ZM50.4356 22.8273C50.4356 19.1373 47.7682 16.6127 44.6723 16.6127C41.5764 16.6127 38.909 19.1373 38.909 22.8273C38.909 26.4802 41.5764 29.0419 44.6723 29.0419C47.7682 29.0419 50.4356 26.4756 50.4356 22.8273Z" fill="white"/>
<path d="M77.0399 22.8273C77.0399 28.7322 72.4376 33.0833 66.7895 33.0833C61.1414 33.0833 56.5391 28.7322 56.5391 22.8273C56.5391 16.8856 61.1414 12.5713 66.7895 12.5713C72.4376 12.5713 77.0399 16.8808 77.0399 22.8273ZM72.5528 22.8273C72.5528 19.1373 69.8854 16.6127 66.7895 16.6127C63.6936 16.6127 61.0262 19.1373 61.0262 22.8273C61.0262 26.4802 63.6936 29.0419 66.7895 29.0419C69.8854 29.0419 72.5528 26.4756 72.5528 22.8273Z" fill="white"/>
<path d="M98.2294 13.1909V31.6037C98.2294 39.1777 93.779 42.2712 88.5179 42.2712C83.5654 42.2712 80.5848 38.9465 79.4607 36.2276L83.3674 34.5954C84.063 36.2645 85.7676 38.2345 88.5133 38.2345C91.8811 38.2345 93.968 36.1489 93.968 32.2232V30.7482H93.8113C92.807 31.992 90.8721 33.0788 88.4305 33.0788C83.3213 33.0788 78.6406 28.612 78.6406 22.8642C78.6406 17.0751 83.3213 12.5713 88.4305 12.5713C90.8675 12.5713 92.8025 13.6579 93.8113 14.8648H93.968V13.1955H98.2294V13.1909ZM94.2859 22.8642C94.2859 19.253 91.8856 16.6127 88.8313 16.6127C85.7354 16.6127 83.1416 19.253 83.1416 22.8642C83.1416 26.4387 85.7354 29.042 88.8313 29.042C91.8856 29.042 94.2859 26.4387 94.2859 22.8642Z" fill="white"/>
<path d="M105.248 2.39844V32.4543H100.871V2.39844H105.248Z" fill="white"/>
<path d="M122.307 26.2031L125.79 28.5335C124.666 30.2027 121.957 33.079 117.277 33.079C111.472 33.079 107.137 28.5751 107.137 22.8229C107.137 16.7239 111.509 12.5669 116.774 12.5669C122.077 12.5669 124.671 16.8024 125.518 19.0913L125.984 20.2565L112.324 25.9348C113.37 27.9925 114.996 29.0422 117.277 29.0422C119.562 29.0422 121.146 27.914 122.307 26.2031ZM111.587 22.513L120.718 18.7075C120.216 17.4267 118.705 16.5342 116.927 16.5342C114.646 16.5342 111.472 18.5549 111.587 22.513Z" fill="white"/>
<path d="M17.8538 20.1592V15.808H32.4624C32.6052 16.5663 32.679 17.4634 32.679 18.4343C32.679 21.6989 31.7899 25.7357 28.9243 28.6117C26.1371 31.5249 22.576 33.0785 17.8584 33.0785C9.11441 33.0785 1.76172 25.9299 1.76172 17.1535C1.76172 8.37719 9.11441 1.22852 17.8584 1.22852C22.6957 1.22852 26.1418 3.1336 28.7308 5.61667L25.6717 8.68701C23.8151 6.93914 21.2997 5.57969 17.8538 5.57969C11.4686 5.57969 6.47462 10.7447 6.47462 17.1535C6.47462 23.5624 11.4686 28.7274 17.8538 28.7274C21.9955 28.7274 24.3542 27.0582 25.8652 25.5414C27.0907 24.3115 27.8969 22.5543 28.2148 20.1545L17.8538 20.1592Z" fill="white"/>
</g>
</svg>
