<svg width="87" height="27" viewBox="0 0 87 27" fill="none" xmlns="http://www.w3.org/2000/svg">
<g clip-path="url(#clip0_3510_2611)">
<path d="M76.0971 7.98662L81.1613 19.0383H71.0004L76.0971 7.98662ZM74.9701 5.19482L65.1621 26.5972H67.6704L70.0953 21.1108H82.0641L84.4901 26.5972H86.9984L77.1904 5.19482H74.969H74.9701Z" fill="white"/>
<path d="M56.4216 15.2304H48.6369V7.26755H56.4216C59.1952 7.26755 61.0593 8.86811 61.0593 11.2484C61.0593 13.6288 59.1952 15.2293 56.4216 15.2293M59.0003 17.0912C61.671 16.3309 63.3966 14.0381 63.3966 11.2474C63.3966 7.62611 60.5938 5.19287 56.4216 5.19287H46.3008V26.5952H48.6369V17.3342H56.5548L61.5963 26.5952H64.1241L58.8671 17.129L58.9992 17.0912H59.0003Z" fill="white"/>
<path d="M34.1673 27C39.8973 27 43.8996 22.9846 43.8996 17.2347V5.19482H41.4984V17.0737C41.4984 21.5082 38.4846 24.6046 34.1684 24.6046C30.5906 24.6046 26.741 22.248 26.741 17.0737V5.19482H24.3398V17.2347C24.3398 22.9846 28.381 27 34.1684 27" fill="white"/>
<path d="M11.1298 4.79199C4.99277 4.79199 0 9.77295 0 15.8955C0 22.018 4.99277 27 11.1298 27C17.2668 27 22.2607 22.0191 22.2607 15.8955C22.2607 9.77187 17.2679 4.79199 11.1298 4.79199ZM11.1298 24.6046C6.31674 24.6046 2.40004 20.6982 2.40004 15.8955C2.40004 11.0927 6.31566 7.18743 11.1298 7.18743C15.944 7.18743 19.8596 11.0938 19.8596 15.8955C19.8596 20.6972 15.944 24.6046 11.1298 24.6046Z" fill="white"/>
<path d="M16.6944 0H5.56348V2.39544H16.6944V0Z" fill="white"/>
</g>
<defs>
<clipPath id="clip0_3510_2611">
<rect width="87" height="27" fill="white"/>
</clipPath>
</defs>
</svg>
