<svg width="124" height="40" viewBox="0 0 124 40" fill="none" xmlns="http://www.w3.org/2000/svg">
<g clip-path="url(#clip0_3510_2620)">
<path d="M1.1925e-09 29.3567C0.0770363 29.2268 0.198756 29.1645 0.224644 29.0741C1.12141 25.9417 2.39336 22.9552 3.93239 20.1095C5.42983 17.3407 7.07977 14.6489 8.8 12.0152C9.46632 10.9951 10.4367 10.1339 11.3979 9.36652C12.8436 8.21234 15.1151 9.05606 15.6436 10.7148C15.9007 11.5219 15.8133 12.2777 15.7717 13.0721C15.7181 14.095 15.7052 15.1231 15.7374 16.1469C15.7631 16.9624 15.8896 17.7743 15.9589 18.5889C16.0968 20.2106 16.5711 21.7431 17.1547 23.246C17.558 24.2846 18.0702 25.2575 18.8785 26.051C20.2179 24.7771 21.1906 23.2542 22.0623 21.6665C23.0108 19.9391 23.863 18.1564 24.8393 16.446C25.4935 15.3 26.0303 14.0213 27.2281 13.3012C28.6857 12.425 30.7436 12.9147 31.4529 14.6535C32.3014 16.7334 33.4916 18.5563 35.2587 19.9548C35.8443 20.4183 36.4464 20.8603 37.1218 21.3736C37.3131 20.7637 37.4688 20.2231 37.6521 19.6923C38.0282 18.6034 38.3821 17.5044 38.8118 16.4371C39.6243 14.4194 40.6779 12.5338 41.8947 10.7325C43.2107 8.78418 44.6968 6.98609 46.4117 5.39817C47.8689 4.04885 49.4557 2.85286 51.2465 1.9809C52.5989 1.32238 53.9979 0.845768 55.5195 0.673151C57.4297 0.456457 59.1865 0.807928 60.8313 1.75099C62.3608 2.62795 63.5518 3.85329 64.1986 5.53909C64.4365 6.15898 64.6404 6.80821 64.7405 7.46277C64.9104 8.57494 63.7424 9.93816 62.5525 10.0193C61.1738 10.1133 60.1617 9.55567 59.7013 8.26052C59.0811 6.51554 57.4262 5.71038 55.8222 6.00989C54.0964 6.33214 52.6674 7.16568 51.3311 8.20385C48.51 10.3956 46.3934 13.1941 44.68 16.3273C43.6765 18.1624 42.942 20.102 42.4077 22.1234C42.3556 22.3208 42.3434 22.529 42.3065 22.7734C42.4217 22.8096 42.5747 22.8958 42.7304 22.9011C45.0139 22.9795 47.2606 22.7812 49.4804 22.1679C51.5968 21.5832 53.566 20.6767 55.4131 19.52C56.8607 18.6134 58.2075 17.5424 59.6063 16.5548C60.5348 15.8992 61.4806 15.2537 62.6702 15.2388C63.6154 15.227 64.9858 15.9585 65.4068 17.185C65.7802 18.2726 65.7094 19.3354 65.5354 20.3875C65.3039 21.7869 64.9758 23.1797 64.5646 24.5366C63.831 26.9571 62.5657 29.1084 61.0647 31.1211C59.6937 32.9597 58.1427 34.6201 56.2562 35.9225C55.2189 36.6386 54.1695 37.3566 53.0543 37.9321C51.6203 38.672 50.0878 39.1211 48.464 39.327C46.508 39.5749 44.6451 39.3117 42.9155 38.4527C41.4818 37.7406 40.3124 36.6463 39.3545 35.3027C37.9225 33.2942 37.176 31.0368 36.7493 28.6433C36.6496 28.0836 36.6587 27.504 36.6185 26.9438C33.3458 25.622 30.7276 23.4794 28.6894 20.6334C27.7047 22.3771 26.761 24.1447 25.7256 25.8555C24.6244 27.6751 23.369 29.3934 21.6499 30.6746C19.9244 31.9606 17.6137 31.7671 15.9373 30.4905C14.4901 29.3884 13.5183 27.9134 12.7283 26.2734C11.7202 24.1807 11.1153 21.9837 10.7882 19.6934C10.755 19.4609 10.6835 19.234 10.6153 18.9426C10.2797 19.4982 9.93572 20.0028 9.65566 20.5416C8.00684 23.7134 6.35305 26.8867 5.35211 30.3471C5.12671 31.1264 4.9682 31.8978 4.36939 32.5053C3.4054 33.4832 1.27628 33.3721 0.457801 32.0962C0.338561 31.9103 0.198193 31.7383 0.0338007 31.5938C-2.36101e-07 30.8889 -2.28437e-07 30.15 1.1925e-09 29.3567ZM58.163 24.0739C53.2169 27.1731 47.854 28.6097 41.8431 28.0935C42.2966 29.2905 42.6188 30.3451 43.0851 31.3296C44.0539 33.3752 46.2433 34.5138 48.2309 34.0592C50.68 33.4991 52.7552 32.2307 54.5566 30.4946C56.0136 29.0905 57.2115 27.4708 58.203 25.7013C58.5947 25.0022 58.9161 24.2628 59.2695 23.5417C59.2319 23.5105 59.1943 23.4793 59.1567 23.4481C58.854 23.6536 58.5514 23.8591 58.163 24.0739Z" fill="white"/>
<path d="M124 18.085C123.447 18.1395 122.895 18.1395 122.277 18.1395C122.277 16.4749 122.283 14.8358 122.272 13.1968C122.27 12.8783 122.226 12.555 122.159 12.2429C121.928 11.1584 121.331 10.6408 120.149 10.5935C119.416 10.5642 118.222 11.2056 118.031 12.0578C117.933 12.4952 117.818 12.941 117.81 13.3847C117.783 14.9499 117.8 16.5158 117.8 18.1103C117.222 18.1103 116.678 18.1103 116.105 18.1103C116.105 14.2197 116.105 10.3361 116.105 6.42334C116.656 6.42334 117.2 6.42334 117.784 6.42334C117.784 7.48222 117.784 8.53661 117.784 9.49015C118.501 9.304 119.194 9.05409 119.908 8.95288C121.582 8.71554 123.005 9.33284 123.657 11.1006C123.732 11.3048 123.835 11.4986 123.963 11.6625C124 13.7621 124 15.8963 124 18.085Z" fill="white"/>
<path d="M15.2172 0C15.2861 0.0747944 15.2764 0.190569 15.3205 0.218359C16.296 0.831949 16.596 1.803 16.7748 2.8757C17.0022 4.2402 16.6896 5.41366 15.6952 6.36263C14.9248 7.09789 13.966 7.26532 13.003 6.92476C12.051 6.58809 11.5191 5.83538 11.3568 4.78893C11.1235 3.28445 11.6398 2.02718 12.52 0.889404C12.7758 0.55874 13.1705 0.338323 13.4677 0.0336843C14.0104 0 14.587 0 15.2172 0Z" fill="white"/>
<path d="M87.1735 6.39424C88.3901 6.39423 88.3421 6.40245 88.534 7.55396C88.8206 9.27349 89.193 10.9782 89.5097 12.6928C89.7692 14.098 89.9984 15.5089 90.2462 16.9164C90.3144 17.3032 90.4011 17.6867 90.493 18.1392C89.9727 18.1392 89.4799 18.168 88.9945 18.1201C88.8642 18.1073 88.6796 17.8761 88.6497 17.7197C88.1683 15.2032 87.7079 12.6827 87.2183 10.0302C86.1885 12.7994 85.205 15.444 84.2093 18.1216C84.1615 18.1252 84.0678 18.1379 83.9739 18.1386C82.4728 18.1498 82.4763 18.1482 81.979 16.7552C81.2102 14.6017 80.4363 12.4502 79.6633 10.2982C79.6373 10.226 79.598 10.1586 79.5419 10.0407C79.1625 11.9843 78.8035 13.8017 78.4545 15.621C78.3163 16.3409 78.2143 17.0681 78.0619 17.7846C78.033 17.9206 77.852 18.1133 77.7291 18.1231C77.2389 18.1622 76.744 18.1392 76.2012 18.1392C76.6017 16.1311 77.0119 14.1874 77.3724 12.2343C77.7102 10.4038 77.9954 8.56328 78.3038 6.72718C78.3132 6.67137 78.3163 6.56868 78.3325 6.56651C78.8077 6.50298 79.2837 6.42141 79.7607 6.41328C79.8866 6.41114 80.0782 6.61669 80.1352 6.76737C81.1544 9.46272 82.1566 12.1646 83.167 14.8634C83.2112 14.9816 83.2982 15.0834 83.4083 15.263C84.4422 12.4607 85.4483 9.72142 86.4683 6.98739C86.5768 6.69646 86.6298 6.28043 87.1735 6.39424Z" fill="white"/>
<path d="M82.2541 22.8913C80.019 22.8538 78.312 24.3002 77.8866 26.3445C77.3732 28.8115 78.55 31.1168 81.2802 31.8291C82.6356 32.1827 83.9908 31.9391 85.0915 30.9473C85.2815 30.7761 85.3802 30.4343 85.4079 30.1596C85.4578 29.6647 85.422 29.1609 85.422 28.6143C84.307 28.6143 83.2266 28.6143 82.1197 28.6143C82.1197 28.0166 82.1197 27.4657 82.1197 26.8607C82.9659 26.8607 83.8018 26.8607 84.6377 26.8607C85.4561 26.8607 86.2745 26.8607 87.1437 26.8607C87.1437 28.329 87.1666 29.7577 87.1224 31.1842C87.1145 31.4389 86.8728 31.7343 86.6634 31.9264C85.577 32.9233 84.341 33.5722 82.8273 33.6142C81.8062 33.6425 80.8261 33.6107 79.8584 33.1807C78.7452 32.6861 77.8519 31.9612 77.1481 30.9775C76.3713 29.8917 75.9765 28.6429 76.0291 27.3336C76.1265 24.9088 77.1943 23.0439 79.3594 21.8373C80.2027 21.3673 81.0956 21.1063 81.9931 21.0798C83.5377 21.034 85.009 21.4195 86.2293 22.4953C86.4903 22.7255 86.5231 22.9616 86.3247 23.1773C86.0186 23.5102 85.6556 23.7895 85.3189 24.0896C84.4687 23.2258 83.4749 22.8207 82.2541 22.8913Z" fill="white"/>
<path d="M122.849 27.3685C123.027 28.6107 123.087 29.7893 122.628 30.947C122.032 32.4532 120.678 33.5265 119.014 33.6034C117.386 33.6786 117.007 33.374 115.965 32.8418C115.965 34.2029 115.965 35.5522 115.965 36.939C115.398 36.939 114.855 36.939 114.275 36.939C114.275 32.8001 114.275 28.6454 114.275 24.4077C114.864 24.5501 115.534 24.1461 116.113 24.713C117.569 23.7754 119.123 23.6578 120.724 24.5259C121.846 25.134 122.435 26.157 122.849 27.3685ZM115.963 29.4287C116.002 29.6106 116.037 29.7934 116.08 29.9744C116.313 30.9617 116.959 31.5941 117.888 31.8288C118.772 32.0521 119.613 31.8794 120.347 31.2173C121.471 30.2038 121.566 28.0583 120.732 26.8809C119.418 25.0266 117.1 25.4808 116.294 27.1021C115.935 27.8258 115.969 28.5666 115.963 29.4287Z" fill="white"/>
<path d="M95.8639 18.4924C94.6412 18.8653 92.9659 18.3735 92.2184 17.514C91.3926 16.5643 91.232 15.0974 91.8355 14.0324C92.3619 13.1034 93.2106 12.5626 94.2241 12.467C95.3493 12.3608 96.4917 12.4427 97.6695 12.4427C97.9327 11.7891 96.7685 10.5472 95.8228 10.5762C94.7381 10.6094 94.6767 10.4263 92.6983 11.4144C92.4504 10.989 92.2002 10.5594 91.9312 10.0978C92.5786 9.39413 93.428 9.15721 94.2865 8.96186C95.2532 8.74188 96.2069 8.83085 97.1525 9.13631C98.4493 9.55516 99.2455 10.5135 99.3932 11.7885C99.6347 13.874 99.6499 15.9865 99.7621 18.1169C99.0662 18.1169 98.5205 18.1169 97.9416 18.1169C97.9416 17.8907 97.9416 17.6838 97.9416 17.5474C97.2641 17.8621 96.5892 18.1755 95.8639 18.4924ZM94.6044 16.8604C94.7758 16.8604 94.9474 16.858 95.1188 16.8609C96.4669 16.883 97.7968 15.8991 97.9193 14.2675C97.3802 14.2371 96.8431 14.1904 96.3053 14.1807C95.6213 14.1684 94.9265 14.1138 94.2553 14.2112C93.5875 14.3081 93.1894 14.8843 93.2328 15.4932C93.2895 16.2885 93.8328 16.6394 94.6044 16.8604Z" fill="white"/>
<path d="M100.913 33.1402C99.3364 33.8988 97.84 33.8193 96.3513 32.9929C93.743 31.5452 93.2453 27.7148 95.1709 25.6239C96.3855 24.305 97.8167 23.7405 99.6109 24.0565C101.49 24.3876 102.713 25.4831 103.316 27.2419C104.078 29.4622 103.197 31.9804 100.913 33.1402ZM98.8967 31.9762C99.3122 31.8327 99.7465 31.7292 100.14 31.5385C101.466 30.8949 102.065 29.6283 101.817 28.3164C101.53 26.7979 100.683 25.9336 99.0797 25.7109C97.6788 25.5162 96.2127 26.411 95.8225 28.0367C95.4804 29.462 95.9441 30.8124 97.4208 31.5895C97.8342 31.807 98.3361 31.8522 98.8967 31.9762Z" fill="white"/>
<path d="M104.595 25.4695C104.595 25.1043 104.595 24.7966 104.595 24.4538C105.16 24.4538 105.704 24.4538 106.318 24.4538C106.318 25.496 106.303 26.5529 106.323 27.6092C106.339 28.489 106.336 29.3756 106.446 30.2458C106.631 31.72 108.167 32.1966 109.359 31.7592C110.627 31.2937 111.006 30.6221 111.022 29.2201C111.039 27.6372 111.026 26.054 111.026 24.4448C111.609 24.4448 112.152 24.4448 112.722 24.4448C112.722 27.3737 112.722 30.287 112.722 33.2281C112.168 33.2281 111.621 33.2281 111.048 33.2281C111.037 33.1039 111.025 32.9742 111.013 32.8409C110.8 32.9487 110.592 33.0624 110.378 33.1621C108.868 33.8644 107.39 33.8563 105.982 32.9035C105.124 32.323 104.796 31.3969 104.731 30.4353C104.619 28.8038 104.633 27.1636 104.595 25.4695Z" fill="white"/>
<path d="M112.659 16.3128C112.913 16.0649 113.137 15.8482 113.379 15.6131C113.75 15.834 114.156 16.0438 114.518 16.3148C114.608 16.3822 114.628 16.6949 114.554 16.8141C113.833 17.9725 112.731 18.4851 111.427 18.6012C110.022 18.7262 108.752 18.3031 107.717 17.3694C106.921 16.6521 106.335 15.7047 106.226 14.6098C106.102 13.3635 106.15 12.1149 106.956 11.0256C107.797 9.88725 108.834 9.14865 110.261 8.93671C111.375 8.77124 112.409 8.88388 113.339 9.5119C113.809 9.82866 114.204 10.2649 114.599 10.6803C114.665 10.7501 114.613 11.0686 114.52 11.1365C114.134 11.4173 113.712 11.6458 113.303 11.8931C112.695 10.9072 111.699 10.5582 110.558 10.6801C108.231 10.9288 107.12 13.67 108.496 15.6099C109.362 16.832 111.152 17.1827 112.659 16.3128Z" fill="white"/>
<path d="M26.9774 6.06431C27.3621 5.50638 27.6683 4.90702 28.137 4.49945C29.1689 3.60232 30.6532 3.82571 31.3935 5.01226C32.3125 6.48511 32.4026 8.947 30.9811 10.3037C30.2809 10.9719 29.4124 11.2301 28.4937 10.9925C27.5081 10.7377 26.8474 10.1075 26.6215 9.02095C26.4071 7.99016 26.5832 7.04628 26.9774 6.06431Z" fill="white"/>
<path d="M103.589 9.29858C104.137 9.30191 104.629 9.30191 105.146 9.30191C105.146 9.89547 105.146 10.446 105.146 11.0433C104.585 11.0433 104.04 11.0433 103.449 11.0433C103.449 12.7486 103.433 14.4079 103.458 16.0666C103.466 16.6004 103.945 16.8794 104.474 16.6871C104.893 16.5343 105.251 16.3929 105.176 17.0887C105.172 17.1212 105.206 17.1563 105.216 17.1921C105.589 18.5374 105.485 18.2943 104.323 18.5824C103.112 18.8826 101.951 18.0112 101.859 16.7368C101.745 15.1274 101.763 13.5082 101.727 11.8932C101.721 11.6269 101.726 11.3604 101.726 11.0491C101.369 11.0491 101.054 11.0491 100.717 11.0491C100.717 10.4526 100.717 9.90163 100.717 9.30487C101.05 9.30487 101.364 9.30487 101.725 9.30487C101.725 8.32183 101.725 7.38288 101.725 6.41992C102.315 6.41992 102.858 6.41992 103.403 6.41992C103.447 7.39247 103.491 8.34386 103.589 9.29858Z" fill="white"/>
<path d="M93.6605 25.6678C93.5372 25.8798 93.4438 26.0606 93.329 26.2829C92.8702 25.859 92.3603 25.556 91.7696 25.742C91.1755 25.9291 90.7556 26.3753 90.6271 27.0135C90.5378 27.4575 90.4854 27.9163 90.4806 28.3692C90.4635 29.9731 90.474 31.5773 90.474 33.2188C89.9132 33.2188 89.3695 33.2188 88.7881 33.2188C88.7881 30.3159 88.7881 27.3904 88.7881 24.4659C90.0717 24.3207 90.3651 24.364 90.5149 24.7523C91.1829 24.1734 91.9611 23.863 92.8217 23.9732C93.3253 24.0377 93.8056 24.289 94.3203 24.4645C94.0605 24.9479 93.8755 25.2923 93.6605 25.6678Z" fill="white"/>
</g>
<defs>
<clipPath id="clip0_3510_2620">
<rect width="124" height="40" fill="white"/>
</clipPath>
</defs>
</svg>
