<svg width="141" height="42" viewBox="0 0 141 42" fill="none" xmlns="http://www.w3.org/2000/svg">
<mask id="mask0_5815_4770" style="mask-type:luminance" maskUnits="userSpaceOnUse" x="1" y="1" width="139" height="41">
<path d="M139.933 1.31592H1.43359V41.3894H139.933V1.31592Z" fill="white"/>
</mask>
<g mask="url(#mask0_5815_4770)">
<path d="M16.4334 7.74756V18.7032H6.26017V7.74756H1.43359V33.9001H6.26148V23.3001H16.432V33.9001H21.2612V7.74756H16.4334ZM36.7143 25.4472C36.7143 26.4954 36.2936 27.5008 35.5442 28.2419C34.7951 28.9832 33.7789 29.3995 32.7194 29.3995C31.6599 29.3995 30.6438 28.9832 29.8946 28.2419C29.1454 27.5008 28.7245 26.4954 28.7245 25.4472V14.2447H24.1449V25.4472C24.1449 27.6949 25.0474 29.8505 26.6539 31.4399C28.2602 33.0292 30.4392 33.9221 32.7109 33.9221C34.9828 33.9221 37.1617 33.0292 38.7681 31.4399C40.3746 29.8505 41.2771 27.6949 41.2771 25.4472V14.2447H36.7143V25.4472ZM70.6481 15.399C70.6481 13.1019 72.1834 12.3741 73.8649 12.3741C75.2212 12.3741 77.0113 13.3954 78.1832 14.6338L81.1819 11.1357C79.6844 9.13204 76.648 7.74756 74.1615 7.74756C69.1924 7.74756 65.5994 10.6264 65.5994 15.399C65.5994 24.254 76.5382 21.4436 76.5382 26.3999C76.5382 27.9278 75.0382 29.2774 73.3214 29.2774C70.6128 29.2774 69.7347 27.9679 68.4909 26.5821L65.1616 30.0065C67.2914 32.5918 69.9177 33.9052 73.0626 33.9052C77.7834 33.9052 81.5804 30.9916 81.5804 26.4361C81.5804 16.6064 70.6403 19.6611 70.6403 15.399H70.6481ZM138.322 29.7221C135.616 29.7221 134.846 28.5638 134.846 26.7902V18.9372H139.054V14.9582H134.846V9.70858L130.203 11.7704V27.7662C130.203 31.8576 133.057 33.9195 136.969 33.9195C137.583 33.9299 138.197 33.8807 138.8 33.7747L139.933 29.6484C139.422 29.6834 138.836 29.7182 138.322 29.7182V29.7221ZM54.147 14.3752C51.8787 14.3752 50.2952 15.0267 48.7638 16.512V7.90398H44.1777V23.8597C44.1777 29.832 48.5418 33.9247 53.4466 33.9247C58.8874 33.9247 63.6735 29.7596 63.6735 24.1519C63.6735 18.6139 59.2689 14.3791 54.147 14.3791V14.3752ZM54.1182 29.3575C53.4348 29.3575 52.758 29.2244 52.1265 28.9655C51.495 28.7068 50.9212 28.3275 50.4379 27.8493C49.9546 27.3712 49.5713 26.8035 49.3096 26.1787C49.0481 25.554 48.9134 24.8844 48.9134 24.208C48.9134 23.5319 49.0481 22.8623 49.3096 22.2375C49.5713 21.6128 49.9546 21.0451 50.4379 20.567C50.9212 20.0887 51.495 19.7095 52.1265 19.4506C52.758 19.1918 53.4348 19.0587 54.1182 19.0587C55.4987 19.0587 56.8226 19.6012 57.7987 20.567C58.7747 21.5326 59.3231 22.8423 59.3231 24.208C59.3231 25.5738 58.7747 26.8836 57.7987 27.8493C56.8226 28.8151 55.4987 29.3575 54.1182 29.3575ZM103.955 23.914C103.955 18.296 99.1791 14.1412 93.7278 14.1412C88.8241 14.1412 84.4588 18.2326 84.4588 24.2062V40.1709H89.045V31.5512C90.5738 33.034 92.1599 33.6882 94.4255 33.6882C99.5475 33.6882 103.955 29.4532 103.955 23.914ZM99.6115 23.8571C99.6115 25.2228 99.0631 26.5327 98.087 27.4983C97.1109 28.4641 95.787 29.0066 94.4067 29.0066C93.0262 29.0066 91.7023 28.4641 90.7262 27.4983C89.7502 26.5327 89.2018 25.2228 89.2018 23.8571C89.2018 22.4914 89.7502 21.1817 90.7262 20.2159C91.7023 19.2502 93.0262 18.7076 94.4067 18.7076C95.787 18.7076 97.1109 19.2502 98.087 20.2159C99.0631 21.1817 99.6115 22.4914 99.6115 23.8571Z" fill="white"/>
<path d="M118.765 13.9208V9.36148C119.374 9.0799 119.889 8.63298 120.252 8.07274C120.614 7.51251 120.808 6.86201 120.811 6.19697V6.09225C120.811 4.15321 119.222 2.58129 117.262 2.58129H117.156C116.215 2.58129 115.313 2.95119 114.647 3.60963C113.982 4.26806 113.608 5.16109 113.608 6.09225V6.19697C113.611 6.86201 113.805 7.51251 114.167 8.07274C114.529 8.63298 115.045 9.0799 115.654 9.36148V13.9208C113.903 14.186 112.255 14.9039 110.876 16.002L98.2368 6.2629C98.327 5.94102 98.374 5.61008 98.3793 5.27786C98.3808 4.4954 98.1478 3.73005 97.7095 3.07865C97.2714 2.42724 96.6479 1.91902 95.9177 1.61829C95.1876 1.31755 94.3838 1.23781 93.6078 1.38914C92.8319 1.54048 92.1186 1.91609 91.5585 2.46846C90.9984 3.02085 90.6164 3.72518 90.4608 4.49237C90.3054 5.25956 90.3834 6.05515 90.6849 6.77848C90.9865 7.50183 91.4981 8.12043 92.1551 8.55605C92.8121 8.99167 93.5849 9.22473 94.3759 9.22575C95.0677 9.22252 95.7466 9.03978 96.3449 8.69575L108.79 18.2772C107.672 19.9482 107.089 21.9138 107.116 23.9174C107.144 25.9213 107.781 27.8704 108.944 29.5108L105.159 33.257C104.853 33.1601 104.534 33.1088 104.213 33.1044C103.564 33.1049 102.93 33.2958 102.39 33.653C101.85 34.0101 101.43 34.5176 101.182 35.111C100.933 35.7046 100.869 36.3575 100.996 36.9874C101.122 37.6173 101.435 38.1959 101.894 38.65C102.353 39.1042 102.938 39.4135 103.575 39.539C104.211 39.6643 104.871 39.6003 105.471 39.3548C106.071 39.1093 106.584 38.6932 106.945 38.1594C107.306 37.6255 107.499 36.9979 107.499 36.3556C107.495 36.0377 107.443 35.7224 107.345 35.4197L111.09 31.7135C112.311 32.6437 113.731 33.2848 115.241 33.588C116.752 33.8913 118.312 33.8484 119.803 33.4628C121.294 33.0773 122.676 32.3592 123.843 31.3636C125.01 30.368 125.932 29.1212 126.537 27.7189C127.141 26.3165 127.414 24.7958 127.333 23.2732C127.252 21.7507 126.82 20.2666 126.07 18.9347C125.32 17.6029 124.271 16.4587 123.005 15.5895C121.739 14.7204 120.288 14.1496 118.765 13.9208ZM117.212 28.9162C116.521 28.9349 115.832 28.8164 115.187 28.5674C114.542 28.3184 113.954 27.944 113.457 27.4663C112.961 26.9887 112.567 26.4175 112.297 25.7865C112.028 25.1555 111.889 24.4774 111.889 23.7926C111.889 23.1076 112.028 22.4296 112.297 21.7984C112.567 21.1675 112.961 20.5963 113.457 20.1186C113.954 19.6411 114.542 19.2666 115.187 19.0176C115.832 18.7686 116.521 18.6501 117.212 18.6689C118.554 18.7153 119.825 19.275 120.757 20.2301C121.69 21.1851 122.211 22.4608 122.212 23.7888C122.213 25.1166 121.692 26.3929 120.761 27.3488C119.829 28.3048 118.559 28.8657 117.218 28.9136" fill="white"/>
</g>
</svg>
