<?xml version="1.0" encoding="UTF-8"?>
<svg id="katman_1" xmlns="http://www.w3.org/2000/svg" viewBox="0 0 737 141.32">
  <defs>
    <style>
      .cls-1 {
        fill: #fff;
      }
    </style>
  </defs>
  <path class="cls-1" d="M4.43,139.45c-2.79,0-4.42-1.67-4.42-4.47v-1.47c0-2.79,1.3-4.09,3.72-5.02l5.39-1.86c3.72-1.47,5.02-3.16,5.02-7.07V29.18c0-3.91-1.3-5.58-5.02-7.07l-5.43-1.86c-2.42-.93-3.69-2.21-3.69-5.02v-1.47c0-2.79,1.67-4.47,4.46-4.47h36.63c2.79,0,4.47,1.67,4.47,4.47v1.47c0,2.79-1.3,4.09-3.72,5.02l-5.43,1.84c-3.91,1.47-5.21,3.16-5.21,7.07v90.37c0,3.91,1.3,5.58,5.21,7.07l5.39,1.86c2.42.93,3.72,2.21,3.72,5.02v1.47c0,2.79-1.67,4.47-4.47,4.47l-36.62.03Z"/>
  <path class="cls-1" d="M56.68,139.45c-2.79,0-4.42-1.67-4.42-4.47v-1.3c0-2.6,1.3-3.91,3.9-4.65l3.69-1.11c3.69-1.12,5.02-2.95,5.02-7.07v-48.16c0-5.58-1.47-7.81-8.55-9.49-2.95-.74-4.09-1.86-4.09-4.42v-1.15c0-2.05,1.11-3.54,3.9-4.47l16.56-6.51c4.42-1.67,7.25,0,7.25,4.65v4.09c0,1.86,1.47,2.42,2.95,1.47l2.95-1.67c8.93-5.58,18.97-9.12,29.01-9.12,15.25,0,23.43,9.49,23.43,26.03v48.75c0,4.09,1.3,5.95,5.2,7.07l3.54,1.11c2.6.74,3.9,2.05,3.9,4.65v1.3c0,2.79-1.67,4.47-4.46,4.47h-19.9c-2.79,0-4.47-1.67-4.47-4.47v-59.15c0-10.98-2.79-16.55-12.27-16.55s-19.33,3.69-24.73,7.06c-3.35,1.86-4.28,3.69-4.28,7.25v47.25c0,4.09,1.3,5.95,5.02,7.07l3.69,1.11c2.61.74,3.91,2.05,3.91,4.65v1.3c0,2.79-1.67,4.47-4.42,4.47h-32.33Z"/>
  <path class="cls-1" d="M162.67,139.45c-2.79,0-4.42-1.67-4.42-4.47v-1.3c0-2.6,1.3-3.91,3.91-4.65l3.9-1.11c3.35-1.12,4.84-2.79,4.84-7.07v-58.57c.04-1.18-.89-2.17-2.08-2.21h-6.83c-2.79,0-4.46-1.86-4.46-4.65v-1.32c0-2.6,1.3-4.09,3.53-5.2l2.05-.93c2.95-1.67,3.69-2.95,4.28-6.32l1.11-11.34c2.37-21.01,16.13-30.31,33.8-30.31,8.37,0,14.51,1.11,18.6,3.16,3.15,1.47,3.69,3.35,2.42,6.51l-3.91,9.67c-.74,1.86-1.86,2.95-3.72,2.95-1.67,0-3.16-.93-4.84-2.42-5.39-4.64-10.97-7.81-16.18-7.81-7.46.02-12.62,6.15-12.62,15.46,0,13.95,7.81,20.45,21.94,20.45h3.12c2.79,0,4.46,1.67,4.46,4.42v3.16c0,2.79-1.67,4.47-4.46,4.47h-17.83c-1.27-.07-2.35.91-2.42,2.18v58.67c0,3.91,1.3,6.14,5.02,7.07l5.76,1.11c2.21.37,3.69,1.67,3.69,4.65v1.3c0,2.79-1.67,4.47-4.47,4.47l-34.19-.02Z"/>
  <path class="cls-1" d="M233.7,139.45c-2.79,0-4.65-1.67-4.65-4.65v-1.11c0-2.6,1.3-3.91,3.91-4.65l3.72-1.11c3.69-1.12,5.02-3.16,5.02-7.07V27.14c0-4.64-.74-8-8.56-9.86-3.35-.74-4.09-1.86-4.09-4.28v-.93c0-2.42,1.12-3.54,3.69-4.47l17.51-6.88c4.47-1.86,7.44,0,7.44,4.65v115.5c0,3.35.93,5.95,5.02,7.07l3.91,1.11c2.6.74,3.72,2.05,3.72,4.65v1.11c0,2.79-1.67,4.65-4.47,4.65h-32.17Z"/>
  <path class="cls-1" d="M351.04,121.42c-4.28,9.86-16.17,19.9-36.63,19.9-26.03,0-45.38-18.78-45.38-47.6s18.6-47.61,42.58-47.61c18.43,0,32.73,10.23,36.82,28.64.74,3.53-.55,5.2-3.35,6.13l-55.22,20.45c-1.17.44-1.76,1.75-1.32,2.92,0,.01.01.02.01.03,4.28,12.83,14.69,21.57,29.75,21.57,11.72,0,19.9-4.42,24.55-10.04,2.42-2.6,5.03-3.69,7.44-2.05,2.23,1.33,2.43,3.75.75,7.66ZM285.03,86.82c-.01.74.05,1.48.18,2.21.18,1.11.93,1.67,2.42.93l40.16-15.24c1.67-.56,2.79-1.3,2.04-3.54-2.97-8.71-10.41-12.97-18.77-12.97-14.69.01-26.03,10.95-26.03,28.61Z"/>
  <path class="cls-1" d="M358.29,93.71c0-28.45,17.48-47.42,42.21-47.42,5.95,0,9.48,1.67,13.58,1.67,4.46,0,6.13-1.67,8.37-1.67,2.42,0,3.35,1.11,4.46,3.35l9.11,20.08c1.3,2.95.38,5.21-1.67,6.14l-.74.37c-2.21,1.3-4.42.74-6.32-1.47-10.05-11.73-16.75-17.12-26.79-17.12-13.76,0-26.03,10.97-26.03,30.31,0,22.11,13.2,37.93,33.84,37.93,10.05,0,16.18-2.6,20.83-7.25,2.95-2.79,5.02-3.35,7.25-2.04,2.04,1.3,3.16,3.35.56,8-5.21,10.04-17.69,16.73-32.54,16.73-28.27-.01-46.12-18.98-46.12-47.61h0Z"/>
  <path class="cls-1" d="M454.61,122.34v-60.06c.04-1.18-.89-2.17-2.08-2.21h-6.82c-2.79,0-4.46-1.67-4.46-4.09v-1.32c0-2.21.74-3.69,3.15-5.4,6.32-4.64,11.16-10.41,16.56-18.04,1.67-2.6,3.53-3.53,5.57-3.53,2.79,0,4.65,1.86,4.65,4.84v13.2c-.04,1.18.89,2.17,2.08,2.21h17.42c2.79,0,4.47,1.67,4.47,4.42v3.16c0,2.79-1.67,4.47-4.47,4.47h-18.04c-1.18-.04-2.17.89-2.21,2.08v57.41c0,5.96,2.79,8.74,8.56,8.74,9.48,0,10.42-4.42,14.69-4.42,1.91-.04,3.5,1.48,3.54,3.39,0,.1,0,.2-.01.3,0,6.88-7.81,13.76-21.57,13.76-14.33.06-21.03-7.19-21.03-18.91h0Z"/>
  <path class="cls-1" d="M510.78,139.45c-2.79,0-4.46-1.67-4.46-4.47v-1.3c0-2.6,1.3-3.91,3.91-4.65l3.69-1.11c3.72-1.12,5.02-2.95,5.02-7.07v-47.79c0-5.57-1.47-7.81-8.55-9.48-2.95-.74-4.09-1.86-4.09-4.47v-1.11c0-2.04,1.11-3.53,3.91-4.42l17.29-6.88c4.65-1.67,7.44,0,7.44,4.65v69.52c0,4.09,1.3,5.95,5.02,7.07l3.69,1.11c2.6.74,3.9,2.05,3.9,4.65v1.3c0,2.79-1.67,4.47-4.42,4.47l-32.35-.02ZM512.45,18.77c0-6.51,5.21-11.53,12.46-11.53s12.46,5.02,12.46,11.53-5.22,11.53-12.47,11.53-12.46-5.2-12.46-11.53h0Z"/>
  <path class="cls-1" d="M547.4,93.71c0-28.27,19.34-47.61,44.63-47.61s44.62,19.34,44.62,47.61-19.33,47.6-44.62,47.6-44.63-19.34-44.63-47.6ZM620.48,97.98c0-20.64-10.98-38.33-31.25-38.33-14.87,0-25.66,10.78-25.66,29.57,0,20.83,11.16,38.49,31.24,38.49,14.87.02,25.67-10.76,25.67-29.69v-.04Z"/>
  <path class="cls-1" d="M642.8,139.45c-2.79,0-4.47-1.67-4.47-4.47v-1.3c0-2.6,1.3-3.91,3.91-4.65l3.69-1.11c3.69-1.12,5.03-2.95,5.03-7.07v-48.16c0-5.58-1.47-7.81-8.56-9.49-2.95-.74-4.09-1.86-4.09-4.42v-1.15c0-2.05,1.11-3.54,3.91-4.47l16.55-6.51c4.47-1.67,7.25,0,7.25,4.65v4.09c0,1.86,1.47,2.42,2.95,1.47l2.95-1.67c8.93-5.58,18.97-9.12,29.01-9.12,15.25,0,23.43,9.49,23.43,26.03v48.75c0,4.09,1.3,5.95,5.2,7.07l3.53,1.11c2.6.74,3.91,2.05,3.91,4.65v1.3c0,2.79-1.67,4.47-4.42,4.47h-19.82c-2.79,0-4.46-1.67-4.46-4.47v-59.15c0-10.98-2.79-16.55-12.27-16.55s-19.34,3.69-24.74,7.06c-3.35,1.86-4.28,3.69-4.28,7.25v47.25c0,4.09,1.3,5.95,5.02,7.07l3.69,1.11c2.6.74,3.91,2.05,3.91,4.65v1.3c0,2.79-1.67,4.47-4.47,4.47h-32.36Z"/>
</svg>