<?xml version="1.0" encoding="UTF-8"?><svg id="Layer_1" xmlns="http://www.w3.org/2000/svg" viewBox="0 0 80.91 24.34"><defs><style>.cls-1{fill:#fff;}</style></defs><path class="cls-1" d="m52.34,21.67c.06-.09.15-.12.39-.33v2.38h3.83V7.21h-4.1c0,3.03.03,5.97-.03,8.91,0,.8-.15,1.63-.42,2.38-.53,1.54-2.05,2.46-3.62,2.32-1.45-.12-2.26-.92-2.61-2.73-.12-.62-.18-1.31-.18-1.96-.03-2.61,0-5.2,0-7.81v-1.13h-4.07c0,3.86-.12,7.6.03,11.37.09,2.76,1.81,4.87,4.1,5.52,2.73.77,5.37-.24,6.68-2.4Z"/><path class="cls-1" d="m12.32,22.5c0-2.52-.06-5.02.03-7.54.03-.95.24-1.93.59-2.82.62-1.48,2.14-2.2,3.71-1.96,1.31.18,2.2,1.19,2.4,2.85.15,1.19.15,2.38.15,3.56.03,2.38,0,4.75,0,7.19h4.1v-2.85c-.03-2.94.06-5.91-.12-8.85-.15-2.64-1.87-4.6-4.19-5.23-2.58-.68-4.84.15-6.44,2.32-.09.12-.18.21-.45.5v-2.52h-3.83v16.57h4.07c-.03-.42-.03-.8-.03-1.22Z"/><path class="cls-1" d="m72.3,23.84h4.13v-12.94h4.48v-3.65h-13.15v3.71h4.54v12.89Z"/><path class="cls-1" d="m29.99,23.78h4.07v-12.89h4.54v-3.65h-13.15v3.71h4.54v12.83Z"/><path class="cls-1" d="m60.81,23.81h4.01V7.21h-4.01v16.6Z"/><path class="cls-1" d="m3.95,7.24H0v16.57h3.95V7.24Z"/><path class="cls-1" d="m74.4,5.02c1.31,0,2.4-1.13,2.43-2.49,0-1.43-1.07-2.52-2.46-2.52s-2.49,1.1-2.49,2.52,1.1,2.49,2.52,2.49Z"/><path class="cls-1" d="m32.07,5.02c1.31,0,2.43-1.16,2.43-2.49s-1.1-2.52-2.49-2.52-2.46,1.07-2.46,2.52c.03,1.43,1.1,2.49,2.52,2.49Z"/></svg>