<svg width="165" height="40" viewBox="0 0 165 40" fill="none" xmlns="http://www.w3.org/2000/svg">
<g clip-path="url(#clip0_5815_4808)">
<mask id="mask0_5815_4808" style="mask-type:luminance" maskUnits="userSpaceOnUse" x="0" y="0" width="164" height="40">
<path d="M163.527 0.585938H0.636719V39.383H163.527V0.585938Z" fill="white"/>
</mask>
<g mask="url(#mask0_5815_4808)">
<path d="M2.05655 17.4639L26.871 1.12233C27.9522 0.504146 29.2767 0.504146 30.358 1.12233L55.1723 17.4639C56.1455 17.9476 56.5779 19.1033 56.0914 20.0978C55.9022 20.5009 55.5778 20.8235 55.1723 21.0117L51.8475 23.1887C43.7113 10.4219 26.7358 6.63221 13.8961 14.6955C10.4632 16.8725 7.54383 19.7484 5.35433 23.1887L2.00249 21.0117C1.02937 20.5009 0.650939 19.3184 1.1375 18.3507C1.35374 17.9745 1.67812 17.6519 2.05655 17.4639ZM28.5739 17.2757C21.4647 17.3025 14.8422 20.9311 11.0579 26.9247L16.7614 30.6875C20.6809 24.2101 29.1416 22.1405 35.6289 26.0377C37.5481 27.1934 39.1431 28.7793 40.3053 30.6875L46.0089 26.9247C42.2786 20.9042 35.6831 17.2488 28.5739 17.2757ZM28.5739 30.9294C26.06 30.9563 23.7624 32.3002 22.519 34.4773L26.3574 36.9769C26.9791 37.5145 27.763 37.7831 28.5739 37.7831C29.3848 37.7831 30.1958 37.4876 30.7904 36.9769L34.6288 34.4773C33.4124 32.2733 31.0878 30.9294 28.5739 30.9294Z" fill="white"/>
<path d="M71.6678 19.1301L77.8849 27.9997H73.5059L68.8025 21.1191V27.9997H65.2344V10.4219H68.8025V17.4368L73.2626 10.4219H77.3713L71.6678 19.1301ZM84.021 10.4756H80.4529V28.0536H89.5623V24.5057H83.9398L84.021 10.4756ZM100.104 9.83057L107.538 28.0267H103.537L102.835 26.1183H96.9688L96.266 28.0267H92.2383L99.6719 9.83057H100.104ZM101.537 22.8393L99.9421 18.297L98.2933 22.8393H101.537ZM112.539 20.2321L108.889 10.4756H104.889L112.322 28.6716H112.674L120.107 10.4756H116.08L112.539 20.2321ZM122.837 28.0536H126.405V10.4756H122.837V28.0536ZM140.516 10.4756L136.92 16.5499L133.325 10.4756H129.027L135.163 20.1246V28.0536H138.677V20.1246L144.868 10.4756H140.516ZM163.113 18.9421C163.113 23.9681 159.005 28.0536 153.949 28.0536C148.896 28.0536 144.787 23.9681 144.787 18.9421C144.787 13.9159 148.896 9.83057 153.949 9.83057C159.032 9.85745 163.113 13.9159 163.113 18.9421ZM159.681 18.9421C159.681 15.7974 157.113 13.2709 153.978 13.2709C150.814 13.2709 148.273 15.8243 148.273 18.9421C148.273 22.0599 150.841 24.6132 153.978 24.6132C157.113 24.6132 159.681 22.0867 159.681 18.9689C159.681 18.9689 159.681 18.9689 159.681 18.9421Z" fill="white"/>
</g>
</g>
<defs>
<clipPath id="clip0_5815_4808">
<rect width="164.287" height="39.5505" fill="white" transform="translate(0.589844 0.0898438)"/>
</clipPath>
</defs>
</svg>
