<?xml version="1.0" encoding="UTF-8"?><svg id="Warstwa_1" width="500" height="75" xmlns="http://www.w3.org/2000/svg" xmlns:xlink="http://www.w3.org/1999/xlink" viewBox="0 0 500 75"><defs><style>.cls-1{clip-path:url(#clippath);}.cls-2{fill:none;}.cls-2,.cls-3{stroke-width:0px;}.cls-3{fill:#fafa00;}</style><clipPath id="clippath"><rect class="cls-2" width="500" height="75"/></clipPath></defs><g class="cls-1"><path class="cls-3" d="M0,0h26.37l23.35,29.76c3.61,4.6,10.11,2.54,10.11-2.9V0h23.36v75h-26.37l-23.35-29.76c-3.61-4.6-10.11-2.54-10.11,2.9v26.85H0V0Z"/><path class="cls-3" d="M88.95,75V0h77.77v75h-77.77ZM140.95,51.54v-28.08c0-1.6-1.29-2.9-2.88-2.9h-20.48c-1.59,0-2.88,1.3-2.88,2.9v28.08c0,1.6,1.29,2.9,2.88,2.9h20.48c1.59,0,2.88-1.3,2.88-2.9h0Z"/><path class="cls-3" d="M172.69,75V0h76.81v18.63h-48.17c-1.59,0-2.88,1.3-2.88,2.89v31.95c0,1.6,1.29,2.89,2.88,2.89h23.59c.87,0,1.7-.38,2.24-1.07,3.11-4,.6-8.61-3.42-8.61h-17.46v-16.33h43.1v44.64h-76.69Z"/><path class="cls-3" d="M255.3,75V0h77.77v75h-77.77,0ZM307.31,51.54v-28.08c0-1.6-1.29-2.9-2.88-2.9h-20.48c-1.59,0-2.88,1.3-2.88,2.9v28.08c0,1.6,1.29,2.9,2.88,2.9h20.48c1.59,0,2.88-1.3,2.88-2.9h0Z"/><path class="cls-3" d="M338.64,75V0h77.77v75h-77.77,0ZM390.65,51.54v-28.08c0-1.6-1.29-2.9-2.88-2.9h-20.48c-1.59,0-2.88,1.3-2.88,2.9v28.08c0,1.6,1.29,2.9,2.88,2.9h20.48c1.59,0,2.88-1.3,2.88-2.9h0Z"/><path class="cls-3" d="M422.23,0h65.49c4.79,4.82,7.49,7.52,12.28,12.34v50.32c-4.79,4.82-7.49,7.52-12.28,12.34h-65.49V0ZM447.99,54.44h19.88c3.18,0,5.76-2.59,5.76-5.79v-22.29c0-3.2-2.58-5.79-5.76-5.79h-19.88v33.87Z"/></g></svg>