<svg width="949" height="191" viewBox="0 0 949 191" fill="none" xmlns="http://www.w3.org/2000/svg">
<g clip-path="url(#clip0_11326_37298)">
<path d="M31.56 125.96C31.56 136.94 33.97 145.37 37.12 150.47C41.25 157.15 47.41 159.98 53.69 159.98C61.79 159.98 69.2 157.97 83.48 138.22C94.92 122.39 108.4 100.17 117.47 86.24L132.83 62.64C143.5 46.25 155.85 28.03 170.01 15.68C181.57 5.6 194.04 0 206.59 0C227.66 0 247.73 12.21 263.09 35.11C279.9 60.19 288.06 91.78 288.06 124.38C288.06 143.76 284.24 158 277.74 169.25C271.46 180.13 259.22 191 238.63 191V159.98C256.26 159.98 260.66 143.78 260.66 125.24C260.66 98.82 254.5 69.5 240.93 48.55C231.3 33.69 218.82 24.61 205.09 24.61C190.24 24.61 178.29 35.81 164.86 55.78C157.72 66.39 150.39 79.32 142.16 93.91L133.1 109.96C114.9 142.23 110.29 149.58 101.19 161.71C85.24 182.95 71.62 191 53.69 191C32.42 191 18.97 181.79 10.64 167.91C3.84 156.6 0.5 141.76 0.5 124.85L31.56 125.96Z" fill="white"/>
<path d="M24.99 37.3C39.23 15.35 59.78 0 83.35 0C97 0 110.57 4.04 124.74 15.61C140.24 28.26 156.76 49.09 177.37 83.42L184.76 95.74C202.6 125.46 212.75 140.75 218.69 147.96C226.33 157.22 231.68 159.98 238.63 159.98C256.26 159.98 260.66 143.78 260.66 125.24L288.06 124.38C288.06 143.76 284.24 158 277.74 169.25C271.46 180.13 259.22 191 238.63 191C225.83 191 214.49 188.22 201.95 176.39C192.31 167.31 181.04 151.18 172.37 136.68L146.58 93.6C133.64 71.98 121.77 55.86 114.9 48.56C107.51 40.71 98.01 31.23 82.85 31.23C70.58 31.23 60.16 39.84 51.44 53.01L24.99 37.3Z" fill="white"/>
<path d="M82.85 31.23C70.58 31.23 60.16 39.84 51.44 53.01C39.11 71.62 31.56 99.34 31.56 125.96C31.56 136.94 33.97 145.37 37.12 150.47L10.64 167.91C3.84 156.6 0.5 141.76 0.5 124.85C0.5 94.1 8.94 62.05 24.99 37.3C39.23 15.35 59.78 0 83.35 0L82.85 31.23Z" fill="white"/>
<path d="M348.44 6.04004H384.37L445.46 116.56L506.56 6.04004H541.71V187.64H512.4V48.46L458.82 144.84H431.32L377.75 48.46V187.64H348.44V6.04004ZM633.55 73.75C612.53 73.75 599.87 89.57 596.84 109.16H668.18C666.71 88.98 655.07 73.75 633.55 73.75ZM567.78 120.32C567.78 79.1 594.42 49.1 634.06 49.1C673.05 49.1 696.33 78.72 696.33 122.52V130.57H596.84C600.37 151.88 614.51 166.24 637.31 166.24C655.5 166.24 666.87 160.69 677.65 150.54L693.22 169.61C678.55 183.1 659.89 190.88 636.27 190.88C593.36 190.88 567.78 159.59 567.78 120.32ZM731.87 76.35H704.89V52.35H731.87V12.66H760.15V52.35H801.14V76.35H760.15V137.18C760.15 157.95 766.79 165.33 783.11 165.33C790.56 165.33 794.83 164.69 801.14 163.64V187.38C793.28 189.6 785.78 190.62 777.66 190.62C747.13 190.62 731.87 173.94 731.87 140.55V76.35ZM920.22 99.69C914.54 85.35 901.87 74.79 883.25 74.79C859.05 74.79 843.56 91.96 843.56 119.93C843.56 147.2 857.82 165.2 882.09 165.2C901.17 165.2 914.79 154.1 920.22 140.29V99.69ZM948.5 187.64H920.74V168.7C912.98 179.85 898.86 190.88 875.99 190.88C839.21 190.88 814.63 160.09 814.63 119.93C814.63 79.39 839.8 49.1 877.55 49.1C896.21 49.1 910.85 56.56 920.74 69.73V52.35H948.5V187.64Z" fill="white"/>
</g>
<defs>
<clipPath id="clip0_11326_37298">
<rect width="948" height="191" fill="white" transform="translate(0.5)"/>
</clipPath>
</defs>
</svg>
