<svg width="168" height="36" viewBox="0 0 168 36" fill="none" xmlns="http://www.w3.org/2000/svg">
<g clip-path="url(#clip0_5815_4745)">
<path d="M1.55859 8.89896V17.19H9.93882H18.3191V8.89896V0.60791H9.93882H1.55859V8.89896Z" fill="white"/>
<path d="M20.0902 0.697199C20.0387 0.735465 20 4.47281 20 8.98825V17.19H28.3802H36.7605V8.89896V0.60791H28.4704C23.9065 0.60791 20.1289 0.646176 20.0902 0.697199Z" fill="white"/>
<path d="M154.592 6.22007C153.238 6.51345 151.807 7.50838 151.201 8.60535C150.673 9.57476 150.466 10.5697 150.466 12.1131V13.4779L149.216 13.5162L147.952 13.5545L147.914 14.9831L147.875 16.4244H149.177H150.466V22.4832V28.5422H152.271H154.076V22.4832V16.4244H156.719H159.362V20.2766C159.375 24.8814 159.466 25.7487 160.033 26.8839C160.51 27.8023 161.258 28.4146 162.238 28.6824C163.063 28.8993 164.855 28.8611 165.783 28.6059L166.582 28.3764V26.9478V25.519L165.847 25.7614C164.661 26.1569 163.733 25.9145 163.269 25.0599C163.063 24.7028 163.037 24.1797 162.998 20.5318L162.96 16.4244H164.764H166.582V14.9576V13.4907H164.777H162.972V11.3095V9.12833L162.624 9.21761C162.418 9.25587 161.606 9.49822 160.819 9.74059L159.362 10.187V11.8708V13.5545L156.707 13.5162L154.051 13.4779L154.089 11.9856C154.141 10.3529 154.308 9.8809 155.005 9.37068C155.482 9.02628 156.59 8.93698 157.351 9.19209L157.944 9.39618V7.87828C157.944 6.58999 157.918 6.36038 157.725 6.2966C157.338 6.14353 155.185 6.10527 154.592 6.22007Z" fill="white"/>
<path d="M74.3208 7.48354C73.6504 7.89171 73.3281 8.45295 73.3281 9.23104C73.3281 10.4811 74.2821 11.2847 75.6617 11.1699C76.8349 11.0678 77.5569 10.328 77.5569 9.21828C77.5569 8.45295 77.299 8.00651 76.5899 7.5218C76.0356 7.15188 74.901 7.12638 74.3208 7.48354Z" fill="white"/>
<path d="M47.3398 18.0831V28.5425H49.0804H50.8208L50.7951 20.5066C50.7692 16.0804 50.7951 12.4706 50.8338 12.4706C50.8723 12.4706 52.368 16.0932 54.173 20.5066L57.4477 28.5552L58.7369 28.517L60.0262 28.4788L63.2107 20.5321C64.9641 16.1569 66.4338 12.5471 66.4725 12.5089C66.5112 12.4578 66.5499 16.0549 66.5499 20.4811V28.5425H68.3548H70.1598V18.0831V7.62354H67.6716H65.1833L62.2309 14.7921C60.6064 18.7463 59.1624 22.2286 59.0335 22.5346L58.7756 23.1087L57.6539 20.3024C57.035 18.7718 55.6426 15.2896 54.5596 12.5599L52.5872 7.62354H49.957H47.3398V18.0831Z" fill="white"/>
<path d="M85.62 13.4271C83.0028 14.0139 80.9528 15.8634 80.0762 18.4656C79.6765 19.6135 79.5734 22.1264 79.8698 23.3636C80.3341 25.2898 81.7394 27.152 83.3638 27.9938C85.3751 29.0271 88.379 29.1292 90.6095 28.2617L91.3573 27.9683L91.4217 26.3357C91.4604 25.4427 91.4732 24.7156 91.4604 24.7156C91.4476 24.7156 91.0607 24.9198 90.5966 25.1622C88.4435 26.3484 86.0325 26.1444 84.6273 24.6775C83.5702 23.5805 83.1575 21.9988 83.4282 20.1365C83.6861 18.3635 84.7175 16.9859 86.213 16.4374C87.6183 15.9144 89.6167 16.1568 90.9061 17.0242C91.151 17.1772 91.383 17.3176 91.4217 17.3176C91.4604 17.3176 91.4732 16.5522 91.4476 15.6083L91.4089 13.8991L90.5451 13.6185C89.4234 13.2486 86.8835 13.1465 85.62 13.4271Z" fill="white"/>
<path d="M100.954 13.3749C99.6907 13.5535 98.698 14.2805 98.0663 15.4923L97.744 16.1046L97.7312 14.7907V13.4769L95.9647 13.5152L94.1856 13.5535L94.1469 21.0409L94.1211 28.5411H95.9132H97.7181L97.7568 23.9109L97.7956 19.2934L98.1565 18.5282C98.7239 17.3418 99.3813 16.7423 100.361 16.5638C101.019 16.449 102.089 16.5893 102.656 16.8826L103.017 17.074V15.352C103.017 14.1147 102.966 13.6045 102.862 13.528C102.592 13.3749 101.573 13.2856 100.954 13.3749Z" fill="white"/>
<path d="M108.971 13.4266C106.173 14.0516 104.188 15.9904 103.479 18.7839C103.182 19.9446 103.17 22.2789 103.466 23.4907C104.072 26.0289 106.006 27.955 108.597 28.631C109.706 28.9118 111.962 28.9118 113.148 28.6055C115.456 28.0316 117.326 26.4244 118.125 24.358C118.589 23.0952 118.795 21.7303 118.705 20.3146C118.576 18.0058 117.957 16.5134 116.642 15.1996C115.817 14.396 115.224 14.0261 113.986 13.5924C113.032 13.248 110.17 13.1587 108.971 13.4266ZM112.762 16.4751C113.625 16.8578 114.399 17.7506 114.708 18.6818C114.902 19.2686 114.953 19.7915 114.953 21.1435C114.94 22.636 114.902 22.9676 114.644 23.6054C114.27 24.5493 113.729 25.1489 112.903 25.5697C112.336 25.8631 112.078 25.9015 111.086 25.9015C109.809 25.9015 109.113 25.6845 108.34 25.0468C107.128 24.0135 106.573 21.5519 107.089 19.3834C107.45 17.9038 108.12 17.0108 109.281 16.4751C110.196 16.0414 111.846 16.0414 112.762 16.4751Z" fill="white"/>
<path d="M124.203 13.4279C122.682 13.8488 121.328 14.9075 120.8 16.081C120.374 17.0377 120.374 18.7724 120.812 19.678C121.341 20.7494 121.934 21.2086 124.216 22.2929C125.364 22.8414 126.408 23.4155 126.537 23.5557C126.872 23.9257 126.962 24.8822 126.692 25.2904C125.957 26.4002 123.223 26.2853 121.173 25.048L120.426 24.6017V26.3237V28.0329L120.89 28.2243C122.321 28.811 125.08 29.0024 126.588 28.6196C128.252 28.1987 129.476 27.3057 130.095 26.0558C130.353 25.52 130.405 25.2267 130.405 24.2062C130.405 23.2113 130.366 22.9052 130.134 22.4714C129.489 21.2597 128.664 20.6475 126.343 19.6142C124.642 18.8745 124.177 18.4791 124.074 17.7136C123.829 15.9662 126.498 15.456 129.103 16.757L129.721 17.0759L129.683 15.4432L129.644 13.8233L128.871 13.5809C127.813 13.2493 125.145 13.16 124.203 13.4279Z" fill="white"/>
<path d="M137.639 13.4778C135.821 13.9243 134.235 15.0085 133.307 16.4371C131.966 18.5162 131.669 21.9093 132.61 24.422C133.771 27.4962 137.058 29.2563 140.784 28.7971C142.912 28.5421 144.072 28.0191 145.374 26.7052C146.947 25.1364 147.553 23.5163 147.553 20.8888C147.553 18.3249 146.947 16.6412 145.529 15.2253C144.575 14.2942 143.75 13.835 142.396 13.4906C141.12 13.1589 138.928 13.1589 137.639 13.4778ZM141.777 16.5136C142.499 16.8963 143.169 17.6615 143.518 18.5417C143.763 19.1795 143.814 19.5366 143.814 20.9525C143.827 23.5674 143.285 24.7919 141.777 25.5445C141.094 25.8761 140.875 25.9145 139.908 25.9145C138.515 25.9016 137.651 25.57 136.929 24.7536C136.091 23.797 135.846 23.0061 135.834 21.1438C135.834 18.5928 136.414 17.3428 137.987 16.5519C138.76 16.1692 138.85 16.1565 140.024 16.1947C140.952 16.233 141.377 16.3095 141.777 16.5136Z" fill="white"/>
<path d="M73.6367 21.0155V28.5412H75.4417H77.2466L77.2209 21.041L77.1822 13.5536L75.416 13.5153L73.6367 13.4771V21.0155Z" fill="white"/>
<path d="M1.55859 27.268V35.5591H9.93882H18.319V27.268V18.9771H9.93882H1.55859V27.268Z" fill="white"/>
<path d="M20.0259 27.2278L20.0646 35.4934L28.4189 35.5316L36.7605 35.5571V27.266V18.9751H28.3802H20L20.0259 27.2278Z" fill="white"/>
</g>
<defs>
<clipPath id="clip0_5815_4745">
<rect width="167.313" height="35.4906" fill="white" transform="translate(0.605469 0.42627)"/>
</clipPath>
</defs>
</svg>
