<svg width="129" height="88" viewBox="0 0 129 88" fill="none" xmlns="http://www.w3.org/2000/svg">
<g clip-path="url(#clip0_5815_4795)">
<path d="M53.9351 10.4802C57.9313 6.34448 63.4949 3.77959 69.6481 3.77959C77.8277 3.77959 84.964 8.30978 88.7642 15.035C92.0667 13.5693 95.7222 12.7541 99.5684 12.7541C114.321 12.7541 126.282 24.7371 126.282 39.518C126.282 54.3007 114.321 66.2837 99.5684 66.2837C97.768 66.2837 96.0082 66.1048 94.3066 65.763C90.96 71.6921 84.5826 75.6983 77.2627 75.6983C74.1985 75.6983 71.3002 74.9953 68.7196 73.7451C65.3271 81.6712 57.423 87.2288 48.2109 87.2288C38.6176 87.2288 30.4416 81.1997 27.3033 72.744C25.9317 73.0333 24.5108 73.1842 23.0528 73.1842C11.6308 73.1842 2.37109 63.8924 2.37109 52.4284C2.37109 44.746 6.53144 38.0383 12.7129 34.4496C11.4402 31.5411 10.7324 28.331 10.7324 24.9561C10.7324 11.7723 21.5083 1.08496 34.7997 1.08496C42.6032 1.08496 49.5382 4.77013 53.9351 10.4802Z" fill="white"/>
<path d="M20.3054 45.7587C20.2277 45.9602 20.3336 46.0022 20.3583 46.0373C20.5913 46.2057 20.8278 46.3266 21.0661 46.4617C22.3299 47.1278 23.523 47.3225 24.771 47.3225C27.3128 47.3225 28.8908 45.9795 28.8908 43.8179V43.7758C28.8908 41.7772 27.1098 41.0513 25.4384 40.5271L25.2212 40.4569C23.9608 40.0502 22.8736 39.6997 22.8736 38.8756V38.8317C22.8736 38.127 23.5091 37.6081 24.4938 37.6081C25.5884 37.6081 26.8874 37.9693 27.7241 38.4286C27.7241 38.4286 27.9694 38.5865 28.0595 38.3497C28.1089 38.2234 28.5325 37.091 28.5765 36.9682C28.6244 36.8349 28.5395 36.7367 28.453 36.6841C27.4981 36.1074 26.1778 35.7129 24.8117 35.7129L24.5574 35.7147C22.231 35.7147 20.6072 37.1101 20.6072 39.1105V39.1526C20.6072 41.2618 22.3988 41.9454 24.0774 42.4223L24.3474 42.5048C25.5707 42.8782 26.6244 43.199 26.6244 44.0546V44.0967C26.6244 44.8786 25.9395 45.4606 24.8346 45.4606C24.4058 45.4606 23.0376 45.4518 21.5603 44.5245C21.382 44.4209 21.278 44.3455 21.1403 44.2632C21.0679 44.2176 20.886 44.1387 20.8067 44.377L20.3054 45.7587Z" fill="black"/>
<path d="M57.5163 45.7587C57.4386 45.9602 57.5446 46.0022 57.5693 46.0373C57.8022 46.2057 58.0388 46.3266 58.2771 46.4617C59.5408 47.1278 60.7342 47.3225 61.982 47.3225C64.5238 47.3225 66.1017 45.9795 66.1017 43.8179V43.7758C66.1017 41.7772 64.3207 41.0513 62.6493 40.5271L62.4321 40.4569C61.1718 40.0502 60.0846 39.6997 60.0846 38.8756V38.8317C60.0846 38.127 60.72 37.6081 61.705 37.6081C62.7993 37.6081 64.0983 37.9693 64.935 38.4286C64.935 38.4286 65.1803 38.5865 65.2704 38.3497C65.3198 38.2234 65.7434 37.091 65.7877 36.9682C65.8353 36.8349 65.7506 36.7367 65.6641 36.6841C64.7091 36.1074 63.3888 35.7129 62.0226 35.7129L61.7684 35.7147C59.442 35.7147 57.8182 37.1101 57.8182 39.1105V39.1526C57.8182 41.2618 59.6097 41.9454 61.2883 42.4223L61.5583 42.5048C62.7816 42.8782 63.8371 43.199 63.8371 44.0546V44.0967C63.8371 44.8786 63.1504 45.4606 62.0455 45.4606C61.6167 45.4606 60.2488 45.4518 58.7712 44.5245C58.5931 44.4209 58.4871 44.3491 58.353 44.2632C58.307 44.2334 58.0918 44.1509 58.0176 44.377L57.5163 45.7587Z" fill="black"/>
<path d="M82.9328 41.523C82.9328 42.7449 82.7034 43.7076 82.2515 44.3876C81.8049 45.0609 81.1288 45.3887 80.1863 45.3887C79.242 45.3887 78.5695 45.0627 78.1299 44.3876C77.6852 43.7093 77.4592 42.7449 77.4592 41.523C77.4592 40.3028 77.6852 39.3421 78.1299 38.6688C78.5695 38.0027 79.242 37.6783 80.1863 37.6783C81.1288 37.6783 81.8049 38.0027 82.2533 38.6688C82.7034 39.3421 82.9328 40.3028 82.9328 41.523ZM85.0545 39.258C84.8463 38.5584 84.5215 37.9413 84.0891 37.4276C83.6565 36.9121 83.1093 36.4984 82.4597 36.197C81.8119 35.8971 81.0459 35.7446 80.1863 35.7446C79.3249 35.7446 78.5589 35.8971 77.9111 36.197C77.2615 36.4984 76.7144 36.9121 76.2802 37.4276C75.8494 37.9431 75.5248 38.5602 75.3146 39.258C75.1081 39.954 75.0039 40.7148 75.0039 41.523C75.0039 42.3312 75.1081 43.0938 75.3146 43.7881C75.5248 44.4859 75.8478 45.103 76.282 45.6185C76.7144 46.134 77.2633 46.5458 77.9111 46.8388C78.5607 47.1315 79.3249 47.2805 80.1863 47.2805C81.0459 47.2805 81.8103 47.1315 82.4597 46.8388C83.1075 46.5458 83.6565 46.134 84.0891 45.6185C84.5215 45.1048 84.8463 44.4877 85.0545 43.7881C85.2627 43.0922 85.367 42.3295 85.367 41.523C85.367 40.7166 85.2627 39.954 85.0545 39.258Z" fill="black"/>
<path d="M102.479 45.0616C102.409 44.8565 102.209 44.9337 102.209 44.9337C101.9 45.051 101.572 45.1598 101.223 45.214C100.868 45.2684 100.478 45.2965 100.059 45.2965C99.0321 45.2965 98.2165 44.9932 97.6323 44.3937C97.0463 43.7941 96.7181 42.8245 96.7215 41.5131C96.7251 40.3193 97.0146 39.4217 97.5353 38.7378C98.0525 38.0577 98.8396 37.7088 99.8899 37.7088C100.765 37.7088 101.433 37.8086 102.132 38.0278C102.132 38.0278 102.299 38.0997 102.379 37.8824C102.564 37.3704 102.702 37.004 102.899 36.4413C102.956 36.2817 102.818 36.2133 102.769 36.194C102.493 36.087 101.844 35.9134 101.353 35.8399C100.894 35.7698 100.358 35.7329 99.761 35.7329C98.8697 35.7329 98.0755 35.8838 97.3958 36.1852C96.7181 36.4851 96.1426 36.8988 95.6873 37.4143C95.2318 37.9296 94.8859 38.5467 94.6547 39.2445C94.4252 39.9405 94.3086 40.7049 94.3086 41.5131C94.3086 43.261 94.7834 44.6742 95.7208 45.7086C96.6597 46.7463 98.0701 47.274 99.9093 47.274C100.997 47.274 102.112 47.055 102.914 46.7412C102.914 46.7412 103.067 46.6674 103 46.4905L102.479 45.0616Z" fill="black"/>
<path d="M106.194 40.352C106.294 39.6735 106.483 39.109 106.774 38.6688C107.214 38.0009 107.885 37.6344 108.827 37.6344C109.77 37.6344 110.393 38.0027 110.839 38.6688C111.136 39.109 111.265 39.698 111.316 40.352H106.194ZM113.337 38.8599C113.157 38.185 112.71 37.5029 112.417 37.1909C111.955 36.6965 111.503 36.3512 111.055 36.1583C110.469 35.9094 109.766 35.7446 108.997 35.7446C108.1 35.7446 107.286 35.8937 106.626 36.2021C105.964 36.5108 105.408 36.9314 104.972 37.4557C104.536 37.9782 104.208 38.6005 104 39.307C103.79 40.01 103.684 40.7762 103.684 41.5844C103.684 42.4066 103.793 43.1727 104.01 43.8618C104.229 44.556 104.578 45.168 105.052 45.6745C105.523 46.1848 106.13 46.5845 106.857 46.8633C107.579 47.1403 108.457 47.2839 109.464 47.2821C111.538 47.2752 112.631 46.8159 113.081 46.5686C113.161 46.5249 113.236 46.4476 113.141 46.2268L112.672 44.9207C112.601 44.726 112.402 44.7979 112.402 44.7979C111.888 44.9872 111.157 45.3274 109.454 45.324C108.34 45.3222 107.514 44.996 106.997 44.4859C106.465 43.9634 106.206 43.1956 106.16 42.1121L113.342 42.119C113.342 42.119 113.531 42.1156 113.551 41.9333C113.558 41.8562 113.798 40.4675 113.337 38.8599Z" fill="black"/>
<path d="M48.6779 40.352C48.7803 39.6735 48.9674 39.109 49.2587 38.6688C49.6981 38.0009 50.3688 37.6344 51.3115 37.6344C52.254 37.6344 52.8771 38.0027 53.3255 38.6688C53.6202 39.109 53.7491 39.698 53.8003 40.352H48.6779ZM55.8196 38.8599C55.6395 38.185 55.1948 37.5029 54.9016 37.1909C54.4392 36.6965 53.9874 36.3512 53.5391 36.1583C52.9531 35.9094 52.2505 35.7446 51.4809 35.7446C50.586 35.7446 49.7704 35.8937 49.1105 36.2021C48.4485 36.5108 47.8924 36.9314 47.4564 37.4557C47.0204 37.9782 46.6922 38.6005 46.484 39.307C46.2756 40.01 46.168 40.7762 46.168 41.5844C46.168 42.4066 46.2774 43.1727 46.4946 43.8618C46.7133 44.556 47.0629 45.168 47.5359 45.6745C48.0072 46.1848 48.6143 46.5845 49.3416 46.8633C50.0635 47.1403 50.9407 47.2839 51.9486 47.2821C54.0227 47.2752 55.1152 46.8159 55.5654 46.5686C55.6449 46.5249 55.7206 46.4476 55.6254 46.2268L55.1577 44.9207C55.0854 44.726 54.8859 44.7979 54.8859 44.7979C54.3722 44.9872 53.6431 45.3274 51.9362 45.324C50.8243 45.3222 49.9982 44.996 49.4811 44.4859C48.9497 43.9634 48.6902 43.1956 48.6444 42.1121L55.8266 42.119C55.8266 42.119 56.0155 42.1156 56.0348 41.9333C56.042 41.8562 56.2819 40.4675 55.8196 38.8599Z" fill="black"/>
<path d="M33.1481 45.0239C32.8673 44.8013 32.8284 44.7451 32.7332 44.6015C32.5919 44.3823 32.5196 44.0702 32.5196 43.6741C32.5196 43.0464 32.7278 42.5959 33.1604 42.2924C33.155 42.2942 33.7781 41.7578 35.2431 41.7771C36.2723 41.7911 37.1919 41.9419 37.1919 41.9419V45.1853C37.1919 45.1853 36.2811 45.3798 35.2537 45.4412C33.7923 45.5288 33.1427 45.0221 33.1481 45.0239ZM36.0057 40.0117C35.7144 39.9905 35.3368 39.9784 34.8848 39.9784C34.2689 39.9784 33.6739 40.0555 33.1162 40.2045C32.5549 40.3534 32.0501 40.5867 31.6159 40.8952C31.1799 41.2054 30.8286 41.6018 30.5744 42.0716C30.3203 42.5415 30.1914 43.0954 30.1914 43.7161C30.1914 44.3472 30.3008 44.896 30.5198 45.3447C30.7386 45.7952 31.0546 46.1705 31.4569 46.4598C31.8558 46.7491 32.3484 46.9611 32.9203 47.0893C33.4834 47.2172 34.1223 47.2819 34.8213 47.2819C35.5573 47.2819 36.2916 47.2224 37.003 47.1014C37.7072 46.9823 38.5722 46.8087 38.8123 46.7543C39.0504 46.6983 39.3152 46.6264 39.3152 46.6264C39.4936 46.5825 39.4794 46.3932 39.4794 46.3932L39.4758 39.8696C39.4758 38.4391 39.0911 37.3784 38.3339 36.7208C37.5803 36.0653 36.47 35.7339 35.0349 35.7339C34.4965 35.7339 33.6299 35.8074 33.111 35.911C33.111 35.911 31.5418 36.2125 30.8958 36.7139C30.8958 36.7139 30.7545 36.8015 30.8322 36.998L31.3406 38.3548C31.4041 38.5301 31.5753 38.4706 31.5753 38.4706C31.5753 38.4706 31.6301 38.4496 31.6934 38.4128C33.0755 37.6659 34.8231 37.6887 34.8231 37.6887C35.5998 37.6887 36.1964 37.8429 36.5987 38.1497C36.9906 38.4478 37.1901 38.8984 37.1901 39.8487V40.1501C36.5722 40.0625 36.0057 40.0117 36.0057 40.0117Z" fill="black"/>
<path d="M93.9127 36.3336C93.9675 36.1724 93.8527 36.0953 93.8051 36.0777C93.6833 36.0303 93.0726 35.9024 92.6012 35.8725C91.6993 35.8183 91.198 35.9689 90.7496 36.1688C90.3049 36.3686 89.8107 36.6912 89.5353 37.0577V36.1899C89.5353 36.0689 89.4488 35.9725 89.3287 35.9725H87.4877C87.3677 35.9725 87.2812 36.0689 87.2812 36.1899V46.8299C87.2812 46.9491 87.3801 47.0473 87.5 47.0473H89.3871C89.507 47.0473 89.6041 46.9491 89.6041 46.8299V41.5142C89.6041 40.8006 89.6836 40.0889 89.8424 39.6419C89.9978 39.2002 90.2096 38.8459 90.4708 38.5916C90.7339 38.3393 91.0322 38.1622 91.3586 38.0622C91.6923 37.9605 92.0612 37.9273 92.3224 37.9273C92.6984 37.9273 93.1113 38.0237 93.1113 38.0237C93.249 38.0395 93.3267 37.9554 93.3725 37.8308C93.4962 37.5048 93.8457 36.5282 93.9127 36.3336Z" fill="black"/>
<path d="M76.2173 31.404C75.9879 31.3339 75.7797 31.2864 75.5077 31.2356C75.2325 31.1866 74.9042 31.1621 74.5317 31.1621C73.2325 31.1621 72.2087 31.5268 71.4904 32.2455C70.7756 32.9609 70.2902 34.0494 70.0465 35.4819L69.9583 35.9639H68.3273C68.3273 35.9639 68.1296 35.957 68.0874 36.1708L67.8208 37.6559C67.8014 37.796 67.8632 37.8854 68.0537 37.8854H69.6406L68.0308 46.8126C67.9055 47.5313 67.7608 48.1221 67.6002 48.5711C67.443 49.0128 67.2895 49.3442 67.0988 49.5861C66.9153 49.8175 66.7424 49.9894 66.4423 50.0893C66.1952 50.1717 65.9092 50.2102 65.5968 50.2102C65.4238 50.2102 65.1925 50.1821 65.0213 50.147C64.8518 50.1138 64.7619 50.0771 64.633 50.0227C64.633 50.0227 64.4477 49.9526 64.3735 50.1367C64.3153 50.2891 63.8917 51.4444 63.8405 51.5865C63.7911 51.7286 63.8616 51.839 63.9517 51.8723C64.1635 51.946 64.3205 51.995 64.6083 52.0633C65.0072 52.1562 65.3443 52.1616 65.6604 52.1616C66.3203 52.1616 66.9241 52.0685 67.4236 51.8898C67.925 51.7093 68.3626 51.3954 68.7509 50.9712C69.1694 50.5119 69.4324 50.0315 69.6829 49.3739C69.9318 48.7253 70.1454 47.9189 70.3149 46.9792L71.9335 37.8854H74.2988C74.2988 37.8854 74.4983 37.8924 74.5387 37.6768L74.8071 36.1937C74.8246 36.0516 74.7647 35.9639 74.5724 35.9639H72.2759C72.2882 35.9131 72.3924 35.1101 72.6555 34.3545C72.7685 34.0337 72.9803 33.7724 73.1584 33.5937C73.335 33.4184 73.538 33.2938 73.7604 33.2221C73.9881 33.1484 74.2476 33.1133 74.5317 33.1133C74.7471 33.1133 74.9605 33.1378 75.1213 33.1713C75.3437 33.2185 75.4302 33.243 75.4884 33.2605C75.7231 33.3307 75.755 33.2623 75.8008 33.1502L76.3498 31.6529C76.4062 31.4917 76.2667 31.4233 76.2173 31.404Z" fill="black"/>
<path d="M44.1322 46.8309C44.1322 46.95 44.0458 47.0465 43.9256 47.0465H42.021C41.9011 47.0465 41.8164 46.95 41.8164 46.8309V31.6062C41.8164 31.4871 41.9011 31.3906 42.021 31.3906H43.9256C44.0458 31.3906 44.1322 31.4871 44.1322 31.6062V46.8309Z" fill="black"/>
</g>
<defs>
<clipPath id="clip0_5815_4795">
<rect width="127.528" height="87.6755" fill="white" transform="translate(0.5 0.0273438)"/>
</clipPath>
</defs>
</svg>
