<svg id="Layer_1" data-name="Layer 1" xmlns="http://www.w3.org/2000/svg" viewBox="0 0 294.05 43.27"><defs><style>.cls-1{fill:#fff;}</style></defs><path class="cls-1" d="M49.38,20.49l-3.08-1.1A13.41,13.41,0,0,1,43.13,18a1.79,1.79,0,0,1-.91-1.56A1.94,1.94,0,0,1,43,14.79a3.86,3.86,0,0,1,2.35-.62,7.09,7.09,0,0,1,5.37,2.28l.42.44,2.48-3.65-.27-.3a10.61,10.61,0,0,0-8.09-3.11,9.08,9.08,0,0,0-5.73,1.84,6.22,6.22,0,0,0-2.41,5.14A6.3,6.3,0,0,0,41,22.69a29.13,29.13,0,0,0,3.19,1.23l.88.29,1.13.37a9.19,9.19,0,0,1,1,.46,4.12,4.12,0,0,1,.95.6,2.48,2.48,0,0,1,.55.72,1.72,1.72,0,0,1,.23.85,2.2,2.2,0,0,1-1,2.06c-1.47.88-3.71,1-6.16-.13a8,8,0,0,1-3-2.24l-.38-.48-2.84,3.45.25.32A11,11,0,0,0,45,34.44a10.08,10.08,0,0,0,6.61-2.12h0a6.89,6.89,0,0,0,2.51-5.53,6.07,6.07,0,0,0-2-4.56A8.87,8.87,0,0,0,49.38,20.49Z"/><path class="cls-1" d="M70.87,9.83a10,10,0,0,0-7.81,3.4,4.07,4.07,0,0,0-3.92-3H57.83V42.79h5.58V31.32a9.29,9.29,0,0,0,7.37,3.12,10.76,10.76,0,0,0,8.36-3.53,12.76,12.76,0,0,0,3.16-8.85,12.59,12.59,0,0,0-3.14-8.75A10.69,10.69,0,0,0,70.87,9.83Zm3.94,17.61a6.77,6.77,0,0,1-9.78,0A8.12,8.12,0,0,1,63.22,22,8,8,0,0,1,65,16.62a6.81,6.81,0,0,1,9.78,0A8,8,0,0,1,76.62,22,8.12,8.12,0,0,1,74.81,27.44Z"/><path class="cls-1" d="M98.18,9.93a8.19,8.19,0,0,0-1.34-.1,6,6,0,0,0-5.2,2.66l0-2.23H86.08V33.92h5.58V22.11a9.66,9.66,0,0,1,1.28-5.42A4,4,0,0,1,96.27,15a5.72,5.72,0,0,1,2.28.43l.86,0,.34-5.07-.61-.24A6.09,6.09,0,0,0,98.18,9.93Z"/><path class="cls-1" d="M105.05,0a3.53,3.53,0,0,0-2.51.92,3.15,3.15,0,0,0-1,2.39,3.16,3.16,0,0,0,1,2.4,3.53,3.53,0,0,0,2.51.92,3.48,3.48,0,0,0,2.47-.92,3.16,3.16,0,0,0,1-2.4,3.15,3.15,0,0,0-1-2.39A3.48,3.48,0,0,0,105.05,0Z"/><rect class="cls-1" x="102.26" y="10.26" width="5.58" height="23.66"/><path class="cls-1" d="M125.43,9.83A8.26,8.26,0,0,0,121,11a8.72,8.72,0,0,0-2.1,1.85l0-2.61h-5.58V33.92h5.58V22a9.94,9.94,0,0,1,1.33-5.46,4.35,4.35,0,0,1,4-2c1.69,0,2.78.47,3.33,1.43a10,10,0,0,1,.89,4.74V33.92H134V20a12.71,12.71,0,0,0-1.9-7.39C130.83,10.77,128.58,9.83,125.43,9.83Z"/><path class="cls-1" d="M157.78,11.46a3.9,3.9,0,0,0-1,1.73A9.19,9.19,0,0,0,154.09,11a10.33,10.33,0,0,0-5-1.18,11.19,11.19,0,0,0-8.1,3.24,11.6,11.6,0,0,0-3.33,8.66A11.6,11.6,0,0,0,141,30.39a11.19,11.19,0,0,0,8.1,3.24,9.52,9.52,0,0,0,7.51-3.2c0,2.6-.57,4.55-1.61,5.82-1.2,1.52-3.15,2.29-5.81,2.29a11.81,11.81,0,0,1-4.46-.91,12.33,12.33,0,0,1-3.32-1.82l-.43-.37-2.73,4.06.39.28A17.61,17.61,0,0,0,149,43.27c4.52,0,8.06-1.53,10.49-4.52,1.73-2.06,2.6-5.46,2.6-10.1V10.26h-1.45A4,4,0,0,0,157.78,11.46Zm-2.85,15.45a7.05,7.05,0,0,1-9.84,0,7.61,7.61,0,0,1-1.78-5.18,7.64,7.64,0,0,1,1.8-5.21,7,7,0,0,1,9.82,0,7.71,7.71,0,0,1,1.78,5.21A7.61,7.61,0,0,1,154.93,26.91Z"/><path class="cls-1" d="M184.4,9.83a8.24,8.24,0,0,0-6.56,3V1h-5.53V33.92h5.53V22.21a10.05,10.05,0,0,1,1.4-5.6,4.45,4.45,0,0,1,4-2,4.66,4.66,0,0,1,2.22.46,2.68,2.68,0,0,1,1.22,1.29,7.61,7.61,0,0,1,.58,1.91,14.06,14.06,0,0,1,.16,2.32V33.92H193v-14a12.64,12.64,0,0,0-1.86-7.35C189.89,10.75,187.61,9.83,184.4,9.83Z"/><path class="cls-1" d="M208.7,9.83a11.7,11.7,0,0,0-12,12.23A12.35,12.35,0,0,0,200,31a11.42,11.42,0,0,0,8.56,3.4,19,19,0,0,0,2.18-.12,18,18,0,0,0,1.89-.32c.54-.13,1.08-.28,1.59-.44a8.41,8.41,0,0,0,1.42-.59l1.08-.57a6.54,6.54,0,0,0,.93-.62l.6-.48a4.09,4.09,0,0,0,.44-.39l.5-.49-2.31-3.18h-.26c-.19,0-.32.08-.66.34a6.58,6.58,0,0,1-.57.4l-.83.5a8,8,0,0,1-1.06.51c-.38.16-.8.3-1.24.44a9.84,9.84,0,0,1-1.48.32,12.94,12.94,0,0,1-1.65.11,6.49,6.49,0,0,1-4.78-1.79,7,7,0,0,1-2-4.41h17.38l.18-2.51A11.14,11.14,0,0,0,216.78,13,11,11,0,0,0,208.7,9.83Zm-6.28,9.78A7.16,7.16,0,0,1,204.11,16a5.45,5.45,0,0,1,4.44-1.85A5.29,5.29,0,0,1,213,16a6.91,6.91,0,0,1,1.59,3.58Z"/><path class="cls-1" d="M231.66,9.83a17.42,17.42,0,0,0-8.74,2.35l-.4.23,1.81,4,.48-.3a12.24,12.24,0,0,1,6.56-1.89,5.58,5.58,0,0,1,3.77,1.21,4.32,4.32,0,0,1,1.36,3.45v.42l-5.59.22a12.22,12.22,0,0,0-6.75,2,6.28,6.28,0,0,0-2.59,5.39A6.86,6.86,0,0,0,224,32.42a8.88,8.88,0,0,0,5.88,2,9.84,9.84,0,0,0,6.72-2.72l0,2.2h5.43V20.25c0-3.33-.87-5.92-2.58-7.7S235.05,9.83,231.66,9.83Zm4.88,17.42a6.11,6.11,0,0,1-5.27,2.95,4.52,4.52,0,0,1-3.1-1,3.12,3.12,0,0,1-1.07-2.42c0-2.13,1.53-3.24,4.68-3.42l4.76-.3Z"/><rect class="cls-1" x="247.2" y="1" width="5.53" height="32.92"/><path class="cls-1" d="M269,29.2a3.38,3.38,0,0,1-.75.22,5.72,5.72,0,0,1-1.07.11,2,2,0,0,1-1.9-.88c-.23-.43-.51-1.46-.51-3.92V14h5.43V9.3h-5.43V1h-5.58V9.3h-3.34V14h3.34V24.83c0,3.5.4,5.81,1.23,7.05a5.89,5.89,0,0,0,5.23,2.56,11,11,0,0,0,4.35-.8l.33-.15-.38-4.77Z"/><path class="cls-1" d="M292.2,12.57c-1.27-1.82-3.54-2.74-6.75-2.74A8.39,8.39,0,0,0,281,11a8.61,8.61,0,0,0-2.1,1.82V1h-5.53V33.92h5.53V22.21a10.05,10.05,0,0,1,1.4-5.6,4.47,4.47,0,0,1,4-2,4.69,4.69,0,0,1,2.22.46,2.66,2.66,0,0,1,1.21,1.29,7.61,7.61,0,0,1,.58,1.91,14.06,14.06,0,0,1,.16,2.32V33.92h5.58v-14A12.72,12.72,0,0,0,292.2,12.57Z"/><path class="cls-1" d="M11.39,25.13H3.71a11.85,11.85,0,0,0-1.78,6.23v6.18h11.4a12,12,0,0,0,12-12V19.39H22.4A13.42,13.42,0,0,1,11.39,25.13Z"/><path class="cls-1" d="M21,18.73l.15-.2c.14-.2.27-.41.4-.62a3.21,3.21,0,0,0,.19-.31c.11-.19.22-.39.32-.59s.13-.26.19-.4.17-.38.25-.57.12-.32.17-.48a5.05,5.05,0,0,0,.18-.55q.09-.28.15-.57l.12-.5c0-.24.08-.47.11-.71s0-.27.05-.41a11.12,11.12,0,0,0,.06-1.16V5.48H12a12,12,0,0,0-12,12v6.18H11.39a11.94,11.94,0,0,0,9.11-4.24h0C20.68,19.18,20.85,19,21,18.73Z"/></svg>