<svg width="948" height="140" viewBox="0 0 948 140" fill="none" xmlns="http://www.w3.org/2000/svg">
<g clip-path="url(#clip0_11326_37306)">
<path d="M0 0.5V46.9515H189V0.5H0ZM0 93.0485V139.5H189V93.0485H0Z" fill="white"/>
<path d="M290.768 0.5C276.072 0.5 265.995 4.08847 259.235 9.3648C251.284 15.4212 247.897 23.6052 247.897 31.7041C247.897 38.6824 250.179 44.8949 253.566 49.7883C259.022 57.5184 274.668 65.9293 286.162 71.773C297.075 77.2337 307.406 81.6448 313.443 88.7934C317.397 93.4881 319.467 98.2822 319.467 105.814C319.467 114.296 315.725 120.778 309.9 125.316C304.047 129.855 295.884 132.408 287.225 132.408C267.271 132.408 256.769 126.508 250.732 103.332L244 105.105C246.466 113.388 248.663 121.43 250.377 133.117C261.276 137.075 274.527 139.5 285.453 139.5C302.219 139.5 314.761 134.592 322.655 127.444C329.812 121.033 333.284 112.423 333.284 102.622C333.284 93.3889 329.089 84.8078 325.135 80.2832C317.029 71.0496 306.173 66.5392 291.477 59.0076C279.615 52.9796 272.259 48.8238 267.384 44.1148C263.813 40.7249 261.007 34.4983 261.007 29.2219C261.007 23.3783 263.217 18.4565 267.738 14.6837C273.01 10.1874 280.649 7.59183 290.059 7.59183C312.295 7.59183 316.221 14.4284 320.175 33.8316L326.907 32.0587C325.206 23.5626 323.42 13.549 322.301 5.81888C312.678 2.07439 302.828 0.5 290.768 0.5ZM560.038 2.98214V8.65561C574.14 8.65561 575.273 9.6201 575.273 23.1939V117.161C575.273 130.536 574.14 131.344 560.038 131.344V136.663H621.333C640.919 136.663 651.902 132.11 659.243 124.962C666.769 117.799 669.872 108.494 669.872 99.0765C669.872 88.7083 664.614 81.2902 657.826 76.0281C649.734 69.7872 638.906 66.4825 626.647 66.0995V65.7455C638.509 64.0435 646.516 60.1855 652.157 55.1078C659.13 48.8811 661.369 40.6262 661.369 33.4777C661.369 23.8611 656.479 16.4005 649.323 11.493C639.147 4.68476 628.022 2.98272 610.704 2.98272L560.038 2.98214ZM481.737 6.17347C473.432 6.17347 467.098 9.29388 462.605 13.6199C456.383 20.0309 453.393 28.7255 453.393 40.2143V51.9158H439.575V57.9439H453.393V119.288C453.393 130.805 452.401 132.054 439.221 132.054V136.663H481.383V132.054C467.253 132.054 466.502 130.962 466.502 119.643V57.9439H490.241V51.9158H466.502V40.9235C466.502 27.5341 468.756 20.6124 472.525 16.102C475.147 13.2653 477.968 11.8469 481.737 11.8469C487.576 11.8469 489.943 15.8467 492.012 20.0025C494.095 24.1584 496.023 28.1582 500.515 28.1582C503.931 28.1582 505.83 26.2717 505.83 22.4847C505.83 19.0948 503.137 14.3716 497.681 10.7832C493.883 8.32939 489.447 6.17347 481.737 6.17347ZM883.517 6.17347C876.558 10.4995 870.068 12.6412 860.842 13.9745V17.875C871.017 17.875 872.179 19.3643 872.179 30.2857V119.643C872.179 130.564 871.768 132.054 860.842 132.054V136.663H895.918V132.054C885.558 132.054 885.288 130.564 885.288 119.643V99.7857L895.563 89.148L926.388 136.663H948V132.054C942.36 132.238 937.98 131.571 933.828 124.962L905.129 81.3469L924.97 62.199C929.293 58.0432 932.283 56.7093 937.725 56.5255V51.9158H909.735V56.5255C918.791 56.5255 917.643 59.6175 912.57 64.3265L885.643 90.5663H885.289V7.23724L883.517 6.17347ZM594.76 10.4286H612.829C626.024 10.4286 634.456 13.1802 639.756 17.5204C643.88 20.9103 646.842 28.4844 646.842 34.8954C646.842 43.9304 643.781 50.5826 638.339 55.1071C631.537 60.7664 620.851 63.2627 607.869 63.2627H589.091V16.8112C589.091 11.7193 589.885 10.4286 594.76 10.4286ZM520.711 28.1582C518.273 47.9302 510.266 52.5541 498.39 53.6888V57.9439H512.562V119.643C512.562 134.351 521.391 138.791 530.985 138.791C538.695 138.791 544.52 136.38 549.409 132.054L546.575 127.798C542.791 130.635 539.248 132.408 534.883 132.408C528.307 132.408 525.671 127.77 525.671 118.934V57.9439H545.512V51.9158H525.671V28.1582H520.711ZM388.201 49.7883C376.141 49.7883 367.198 53.2633 359.857 60.0714C352.332 67.4044 348.519 79.2336 348.519 94.1122C348.519 111.274 352.87 122.607 360.211 129.571C367.751 136.167 376.92 138.791 388.201 138.791C400.063 138.791 409.02 135.982 416.546 129.217C423.717 122.238 428.238 111.09 428.238 94.1122C428.238 79.2336 423.901 67.7873 416.546 60.426C409.204 53.4476 400.8 49.7883 388.201 49.7883ZM716.64 49.7883C706.677 49.7883 700.286 52.2704 695.382 55.1071C689.345 58.6814 685.462 63.7024 685.462 68.227C685.462 71.078 687.191 73.9005 690.776 73.9005C694.73 73.9005 696.572 71.929 697.508 69.2908C699.223 65.135 700.725 61.9437 703.177 60.0714C706.564 57.4049 710.277 55.8163 715.932 55.8163C722.153 55.8163 726.589 57.7169 729.395 61.4898C731.861 64.6953 732.584 70.2837 732.584 74.6097V82.7653L721.6 85.2474C709.54 87.8714 700.03 91.8996 693.611 96.2398C685.334 101.686 681.918 108.494 681.918 117.161C681.918 124.323 684.838 129.529 689.359 133.117C694.262 137.075 700.682 138.791 706.72 138.791C719.149 138.791 726.547 134.55 732.938 128.508H733.647C735.362 134.706 739.486 138.082 746.047 138.082C750.965 138.082 754.182 137.102 757.385 135.599L756.323 130.99C754.821 131.926 753.219 132.408 751.362 132.408C747.607 132.408 745.694 128.834 745.694 120.352V76.0281C745.694 67.7448 744.191 62.7096 739.316 57.2347C734.597 51.9725 727.95 49.7883 716.64 49.7883ZM786.084 49.7883C779.862 54.3129 773.442 56.2702 765.18 57.5893V61.8444C775.142 61.6594 776.163 62.9791 776.163 73.9005V119.643C776.163 130.962 775.326 132.054 765.18 132.054V136.663H798.13V132.054C789.272 132.054 788.918 130.962 788.918 119.643V74.2551C796.457 63.8727 805.102 56.5255 813.011 56.5255C818.084 56.5255 821.528 57.9864 823.994 60.426C827.565 64.213 828.246 70.0993 828.246 77.4464V119.643C828.246 130.962 827.736 132.054 818.68 132.054V136.663H850.567V132.054C842.092 132.054 841.355 130.55 841.355 119.997V76.7372C841.355 66.7661 838.96 59.9721 834.623 55.8163C830.485 51.8591 824.646 49.7883 816.554 49.7883C806.194 49.7883 796.457 55.788 788.918 65.3903H788.564L787.855 50.852L786.084 49.7883ZM387.847 55.8163C395.769 55.8163 402.288 58.3268 406.625 63.6173C411.699 70.2127 414.42 79.5882 414.42 94.1122C414.42 109.374 410.976 118.919 406.271 124.962C401.948 129.855 396.109 133.117 388.201 133.117C380.293 133.117 374.086 129.855 369.778 124.962C365.072 118.919 361.983 109.374 361.983 94.1122C361.983 79.5882 364.718 70.2127 369.778 63.6173C374.284 58.3268 380.322 55.8163 387.847 55.8163ZM589.091 70.3546H612.475C627.894 70.3546 638.481 73.0495 645.071 78.1556C651.817 83.2475 655.346 90.4245 655.346 98.7219C655.346 108.537 652.426 115.657 647.905 120.352C641.5 126.962 632.94 129.571 619.561 129.571H596.177C590.338 129.571 589.091 128.252 589.091 120.352V70.3546ZM732.584 88.4388V121.77C727.864 126.465 721.629 131.699 712.389 131.699C706.748 131.699 702.468 129.756 699.634 127.089C696.799 124.281 695.736 120.309 695.736 115.388C695.736 106.736 700.81 101.601 708.137 97.6581C715.095 93.3321 724.477 90.694 732.584 88.4388Z" fill="white"/>
</g>
<defs>
<clipPath id="clip0_11326_37306">
<rect width="948" height="139" fill="white" transform="translate(0 0.5)"/>
</clipPath>
</defs>
</svg>
