<?xml version="1.0" encoding="utf-8"?>
<svg width="162" height="38" viewBox="0 0 81 19" fill="none" xmlns="http://www.w3.org/2000/svg">
<path d="M1.37515 0.648438H14.6326L13.4155 4.46451H9.97771V18.3858H5.67643V4.46451H1.38338L1.37515 0.648438Z" fill="white"/>
<path d="M36.3445 0.648926H49.9062L48.689 4.465H44.9552V18.3863H40.6622V4.465H36.3527L36.3445 0.648926Z" fill="white"/>
<path d="M15.4393 6.29004H19.6912V18.3852H15.4722L15.4393 6.29004Z" fill="white"/>
<path d="M21.3757 0.600098H25.6194V8.86279L29.8303 4.7683H34.8964L29.5753 9.91099L35.5379 18.3866H30.8583L26.8778 12.4987L25.6194 13.7107V18.3866H21.3757V0.600098Z" fill="white"/>
<path d="M66.3535 0.600098H70.6465V8.86279L74.8491 4.7683H79.9152L74.5941 9.91099L80.5156 18.3866H75.836L71.8637 12.4987L70.6465 13.7107V18.3866H66.3946L66.3535 0.600098Z" fill="white"/>
<path d="M17.5674 4.9072C18.7483 4.9072 19.7057 3.95396 19.7057 2.77806C19.7057 1.60217 18.7483 0.648926 17.5674 0.648926C16.3864 0.648926 15.4291 1.60217 15.4291 2.77806C15.4291 3.95396 16.3864 4.9072 17.5674 4.9072Z" fill="white"/>
<path d="M49.3625 11.1457C49.3638 7.36772 52.2826 4.22604 56.0653 3.93115C55.8761 3.93115 55.6212 3.93115 55.432 3.93115C51.5877 4.15442 48.5851 7.32365 48.5851 11.1579C48.5851 14.9922 51.5877 18.1615 55.432 18.3847C55.6212 18.3847 55.8761 18.3847 56.0653 18.3847C52.2732 18.0891 49.3509 14.933 49.3625 11.1457Z" fill="white"/>
<path d="M57.7191 3.90704C57.5217 3.90704 57.2668 3.90704 57.0776 3.90704C60.848 4.21713 63.7494 7.35455 63.7494 11.1215C63.7494 14.8885 60.848 18.026 57.0776 18.3361C57.2668 18.3361 57.5217 18.3361 57.7191 18.3361C61.7343 18.3361 64.9893 15.095 64.9893 11.097C64.9893 7.09895 61.7343 3.85791 57.7191 3.85791V3.90704Z" fill="white"/>
<path d="M56.5672 14.6671C54.6141 14.6671 53.0307 13.0906 53.0307 11.1458C53.0307 9.20107 54.6141 7.62454 56.5672 7.62454C58.5203 7.62454 60.1036 9.20107 60.1036 11.1458C60.0991 13.0887 58.5184 14.6626 56.5672 14.6671ZM56.5672 3.90674C52.5519 3.90674 49.2969 7.14778 49.2969 11.1458C49.2969 15.1438 52.5519 18.3849 56.5672 18.3849C60.5824 18.3849 63.8374 15.1438 63.8374 11.1458C63.8374 9.22589 63.0714 7.3846 61.708 6.02701C60.3446 4.66942 58.4954 3.90674 56.5672 3.90674Z" fill="white"/>
<defs>
</defs>
</svg>
